<svg width="1018" height="1277" viewBox="0 0 1018 1277" fill="none" xmlns="http://www.w3.org/2000/svg">
<path d="M390.769 1052.59C389.227 1054.33 386.542 1054.39 384.921 1052.73L374.724 1042.3C373.407 1040.95 371.324 1040.69 369.8 1041.8C354.981 1052.55 341.281 1074.47 337.602 1096.58C337.046 1099.93 340.652 1101.77 343.021 1099.34C344.069 1098.27 345.086 1097.19 346.133 1096.13C348.66 1093.56 352.334 1095.88 351.564 1099.4C345.769 1125.91 343.245 1135.43 340.096 1162.09C339.594 1166.35 345.109 1168.17 347.222 1164.44C349.064 1161.19 350.663 1158.34 352.224 1155.6C354.509 1151.59 360.925 1154.41 360.075 1158.94C353.604 1193.51 355.93 1227.36 364.837 1259.91C365.726 1263.16 369.973 1263.78 371.792 1260.95C391.336 1230.48 405.008 1200.68 412.765 1165.33C413.726 1160.96 419.988 1160.94 420.512 1165.39C421.602 1174.64 422.045 1182.47 423.313 1192.34C423.885 1196.78 429.778 1196.68 430.402 1192.24C432.764 1175.46 435.01 1157.61 435.499 1142.25C435.618 1138.51 440.645 1137.43 443.053 1140.29V1140.29C444.714 1142.27 447.694 1141.03 448.024 1138.47C454.759 1086.28 449.548 1072.31 438.768 1055.01C437.716 1053.32 435.567 1052.69 433.756 1053.51L420.194 1059.67C418.347 1060.51 416.165 1059.84 415.116 1058.1L413.433 1055.32C412.811 1054.29 411.758 1053.59 410.566 1053.42L407.584 1053.01C406.575 1052.86 405.658 1052.34 405.02 1051.55L401.669 1047.37C400.121 1045.44 397.208 1045.36 395.562 1047.21L390.769 1052.59Z" fill="url(#paint0_linear)"/>
<g filter="url(#filter0_d)">
<path d="M548.167 598.23C486.112 592.906 451.428 587.93 389.725 575.962L331.411 990.884C331.027 993.619 332.932 996.147 335.667 996.532L348.201 998.293C349.671 998.5 351.156 998.043 352.256 997.046L373.666 977.636L380.967 972.134C383.173 970.473 386.308 970.913 387.97 973.119L393.471 980.42L413.17 951.827C415.508 948.434 420.716 949.166 422.027 953.072L433.082 985.987L440.383 980.485C442.589 978.823 445.724 979.264 447.386 981.469L452.887 988.77L468.118 1013.33C468.901 1014.59 470.202 1015.44 471.672 1015.65L484.207 1017.41C486.941 1017.79 489.47 1015.89 489.854 1013.15L548.167 598.23Z" fill="#3D3D3D"/>
<path d="M548.167 598.23C486.112 592.906 451.428 587.93 389.725 575.962L331.411 990.884C331.027 993.619 332.932 996.147 335.667 996.532L348.201 998.293C349.671 998.5 351.156 998.043 352.256 997.046L373.666 977.636L380.967 972.134C383.173 970.473 386.308 970.913 387.97 973.119L393.471 980.42L413.17 951.827C415.508 948.434 420.716 949.166 422.027 953.072L433.082 985.987L440.383 980.485C442.589 978.823 445.724 979.264 447.386 981.469L452.887 988.77L468.118 1013.33C468.901 1014.59 470.202 1015.44 471.672 1015.65L484.207 1017.41C486.941 1017.79 489.47 1015.89 489.854 1013.15L548.167 598.23Z" fill="white"/>
<path d="M389.725 575.962C451.428 587.93 486.112 592.906 548.167 598.23L541.048 577.033C486.87 571.8 456.484 567.642 402.411 557.548L389.725 575.962Z" fill="#3D3D3D"/>
<path d="M389.725 575.962C451.428 587.93 486.112 592.906 548.167 598.23L541.048 577.033C486.87 571.8 456.484 567.642 402.411 557.548L389.725 575.962Z" fill="white"/>
<path d="M578.786 380.371C516.464 374.879 481.718 370.311 420.343 358.103L427.462 379.3C481.284 391.246 511.678 394.9 566.099 398.784L578.786 380.371Z" fill="#3D3D3D"/>
<path d="M578.786 380.371C516.464 374.879 481.718 370.311 420.343 358.103L427.462 379.3C481.284 391.246 511.678 394.9 566.099 398.784L578.786 380.371Z" fill="white"/>
<path d="M422.027 953.072C420.716 949.166 415.508 948.434 413.17 951.827L393.471 980.42C385.19 992.44 381.178 1000.54 376.86 1009.87C374.959 1013.97 379.093 1018.39 383.391 1016.98C404.345 1010.13 415.039 1011.8 433.332 1024.35C436.973 1026.84 442.003 1023.96 441.399 1019.59C439.809 1008.08 437.835 998.538 433.082 985.987L422.027 953.072Z" fill="#3D3D3D"/>
<path d="M422.027 953.072C420.716 949.166 415.508 948.434 413.17 951.827L393.471 980.42C385.19 992.44 381.178 1000.54 376.86 1009.87C374.959 1013.97 379.093 1018.39 383.391 1016.98C404.345 1010.13 415.039 1011.8 433.332 1024.35C436.973 1026.84 442.003 1023.96 441.399 1019.59C439.809 1008.08 437.835 998.538 433.082 985.987L422.027 953.072Z" fill="white"/>
<path d="M620.537 83.2903L617.327 70.2218L612.21 68.9079C611.295 68.673 610.465 68.1837 609.817 67.4967L591.117 47.6808C590.522 47.0504 590.101 46.2762 589.896 45.4342L588.996 41.747C588.671 40.4149 587.813 39.2747 586.624 38.5933L580.561 35.1209C580.009 34.8048 579.402 34.5969 578.772 34.5083L576.532 34.1936C575.586 34.0606 574.698 33.6595 573.973 33.0375L567.745 27.6961C567.02 27.0742 566.132 26.673 565.186 26.54L530.948 21.7282C530.002 21.5953 529.038 21.7361 528.17 22.1341L520.711 25.552C519.842 25.95 518.878 26.0908 517.932 25.9579L515.693 25.6431C515.063 25.5546 514.422 25.5871 513.804 25.7388L506.853 27.4462C505.62 27.7493 504.548 28.5103 503.855 29.575L502.109 32.2592C501.69 32.903 501.128 33.4416 500.467 33.8333L476.567 48.0017C475.964 48.3589 475.293 48.5856 474.597 48.6669L471.292 49.0531C469.716 49.2372 468.322 50.1579 467.533 51.5343L462.574 60.1926C462.258 60.7447 462.05 61.352 461.962 61.9819L450.548 143.221L449.814 148.402L420.343 358.103C481.718 370.311 516.464 374.879 578.786 380.371L608.365 169.902L620.537 83.2903Z" fill="#3D3D3D"/>
<path d="M620.537 83.2903L617.327 70.2218L612.21 68.9079C611.295 68.673 610.465 68.1837 609.817 67.4967L591.117 47.6808C590.522 47.0504 590.101 46.2762 589.896 45.4342L588.996 41.747C588.671 40.4149 587.813 39.2747 586.624 38.5933L580.561 35.1209C580.009 34.8048 579.402 34.5969 578.772 34.5083L576.532 34.1936C575.586 34.0606 574.698 33.6595 573.973 33.0375L567.745 27.6961C567.02 27.0742 566.132 26.673 565.186 26.54L530.948 21.7282C530.002 21.5953 529.038 21.7361 528.17 22.1341L520.711 25.552C519.842 25.95 518.878 26.0908 517.932 25.9579L515.693 25.6431C515.063 25.5546 514.422 25.5871 513.804 25.7388L506.853 27.4462C505.62 27.7493 504.548 28.5103 503.855 29.575L502.109 32.2592C501.69 32.903 501.128 33.4416 500.467 33.8333L476.567 48.0017C475.964 48.3589 475.293 48.5856 474.597 48.6669L471.292 49.0531C469.716 49.2372 468.322 50.1579 467.533 51.5343L462.574 60.1926C462.258 60.7447 462.05 61.352 461.962 61.9819L450.548 143.221L449.814 148.402L420.343 358.103C481.718 370.311 516.464 374.879 578.786 380.371L608.365 169.902L620.537 83.2903Z" fill="white"/>
<path d="M402.411 557.548C456.484 567.642 486.87 571.8 541.048 577.033L544.813 550.246C490.353 544.365 460.183 539.191 406.072 531.5L402.411 557.548Z" fill="#3D3D3D"/>
<path d="M402.411 557.548C456.484 567.642 486.87 571.8 541.048 577.033L544.813 550.246C490.353 544.365 460.183 539.191 406.072 531.5L402.411 557.548Z" fill="white"/>
<path d="M566.099 398.784C511.678 394.9 481.284 391.246 427.462 379.3L423.429 408C476.785 416.548 507.073 420.937 562.064 427.5L566.099 398.784Z" fill="#3D3D3D"/>
<path d="M566.099 398.784C511.678 394.9 481.284 391.246 427.462 379.3L423.429 408C476.785 416.548 507.073 420.937 562.064 427.5L566.099 398.784Z" fill="white"/>
<path d="M406.072 531.5C460.183 539.191 490.353 544.365 544.813 550.246L562.064 427.5C507.073 420.937 476.785 416.548 423.429 408L406.072 531.5Z" fill="#3D3D3D"/>
<path d="M406.072 531.5C460.183 539.191 490.353 544.365 544.813 550.246L562.064 427.5C507.073 420.937 476.785 416.548 423.429 408L406.072 531.5Z" fill="white"/>
<path d="M462.095 61.0226L449.814 148.402M620.537 83.2903L617.326 70.2161M620.537 83.2903L608.365 169.902M620.537 83.2903L617.327 70.2218M420.343 358.103C481.718 370.311 516.464 374.879 578.786 380.371M420.343 358.103L427.462 379.3M420.343 358.103L449.814 148.402M578.786 380.371L566.099 398.784M578.786 380.371L608.365 169.902M389.725 575.962C451.428 587.93 486.112 592.906 548.167 598.23M389.725 575.962L402.411 557.548M389.725 575.962L331.411 990.884C331.027 993.619 332.932 996.147 335.667 996.532L348.201 998.293C349.671 998.5 351.156 998.043 352.256 997.046L373.666 977.636L380.967 972.134C383.173 970.473 386.308 970.913 387.97 973.119L393.471 980.42M548.167 598.23L541.048 577.033M548.167 598.23L489.854 1013.15C489.47 1015.89 486.941 1017.79 484.207 1017.41L471.672 1015.65C470.202 1015.44 468.901 1014.59 468.118 1013.33L452.887 988.77L447.386 981.469C445.724 979.264 442.589 978.823 440.383 980.485L433.082 985.987M402.411 557.548C456.484 567.642 486.87 571.8 541.048 577.033M402.411 557.548L406.072 531.5M541.048 577.033L544.813 550.246M427.462 379.3C481.284 391.246 511.678 394.9 566.099 398.784M427.462 379.3L423.429 408M566.099 398.784L562.064 427.5M393.471 980.42L413.17 951.827C415.508 948.434 420.716 949.166 422.027 953.072L433.082 985.987M393.471 980.42C385.19 992.44 381.178 1000.54 376.86 1009.87C374.959 1013.97 379.093 1018.39 383.391 1016.98C404.345 1010.13 415.039 1011.8 433.332 1024.35C436.973 1026.84 442.003 1023.96 441.399 1019.59C439.809 1008.08 437.835 998.538 433.082 985.987M617.327 70.2218L620.309 82.361C620.461 82.9786 620.493 83.6196 620.405 84.2494L608.99 165.489L608.365 169.902M617.327 70.2218L612.21 68.9079C611.295 68.673 610.465 68.1837 609.817 67.4967L591.117 47.6808C590.522 47.0504 590.101 46.2762 589.896 45.4342L588.996 41.747C588.671 40.4149 587.813 39.2747 586.624 38.5933L580.561 35.1209C580.009 34.8048 579.402 34.5969 578.772 34.5083L576.532 34.1936C575.586 34.0606 574.698 33.6595 573.973 33.0375L567.745 27.6961C567.02 27.0742 566.132 26.673 565.186 26.54L530.948 21.7282C530.002 21.5953 529.038 21.7361 528.17 22.1341L520.711 25.552C519.842 25.95 518.878 26.0908 517.932 25.9579L515.693 25.6431C515.063 25.5546 514.422 25.5871 513.804 25.7388L506.853 27.4462C505.62 27.7493 504.548 28.5103 503.855 29.575L502.109 32.2592C501.69 32.903 501.128 33.4416 500.467 33.8333L476.567 48.0017C475.964 48.3589 475.293 48.5856 474.597 48.6669L471.292 49.0531C469.716 49.2372 468.322 50.1579 467.533 51.5343L462.574 60.1926C462.258 60.7447 462.05 61.352 461.962 61.9819L450.548 143.221L449.814 148.402M406.072 531.5C460.183 539.191 490.353 544.365 544.813 550.246M406.072 531.5L423.429 408M544.813 550.246L562.064 427.5M423.429 408C476.785 416.548 507.073 420.937 562.064 427.5" stroke="url(#paint1_radial)" stroke-width="15" stroke-linecap="round" stroke-linejoin="round"/>
<path d="M462.095 61.0226L449.814 148.402M620.537 83.2903L617.326 70.2161M620.537 83.2903L608.365 169.902M620.537 83.2903L617.327 70.2218M420.343 358.103C481.718 370.311 516.464 374.879 578.786 380.371M420.343 358.103L427.462 379.3M420.343 358.103L449.814 148.402M578.786 380.371L566.099 398.784M578.786 380.371L608.365 169.902M389.725 575.962C451.428 587.93 486.112 592.906 548.167 598.23M389.725 575.962L402.411 557.548M389.725 575.962L331.411 990.884C331.027 993.619 332.932 996.147 335.667 996.532L348.201 998.293C349.671 998.5 351.156 998.043 352.256 997.046L373.666 977.636L380.967 972.134C383.173 970.473 386.308 970.913 387.97 973.119L393.471 980.42M548.167 598.23L541.048 577.033M548.167 598.23L489.854 1013.15C489.47 1015.89 486.941 1017.79 484.207 1017.41L471.672 1015.65C470.202 1015.44 468.901 1014.59 468.118 1013.33L452.887 988.77L447.386 981.469C445.724 979.264 442.589 978.823 440.383 980.485L433.082 985.987M402.411 557.548C456.484 567.642 486.87 571.8 541.048 577.033M402.411 557.548L406.072 531.5M541.048 577.033L544.813 550.246M427.462 379.3C481.284 391.246 511.678 394.9 566.099 398.784M427.462 379.3L423.429 408M566.099 398.784L562.064 427.5M393.471 980.42L413.17 951.827C415.508 948.434 420.716 949.166 422.027 953.072L433.082 985.987M393.471 980.42C385.19 992.44 381.178 1000.54 376.86 1009.87C374.959 1013.97 379.093 1018.39 383.391 1016.98C404.345 1010.13 415.039 1011.8 433.332 1024.35C436.973 1026.84 442.003 1023.96 441.399 1019.59C439.809 1008.08 437.835 998.538 433.082 985.987M617.327 70.2218L620.309 82.361C620.461 82.9786 620.493 83.6196 620.405 84.2494L608.99 165.489L608.365 169.902M617.327 70.2218L612.21 68.9079C611.295 68.673 610.465 68.1837 609.817 67.4967L591.117 47.6808C590.522 47.0504 590.101 46.2762 589.896 45.4342L588.996 41.747C588.671 40.4149 587.813 39.2747 586.624 38.5933L580.561 35.1209C580.009 34.8048 579.402 34.5969 578.772 34.5083L576.532 34.1936C575.586 34.0606 574.698 33.6595 573.973 33.0375L567.745 27.6961C567.02 27.0742 566.132 26.673 565.186 26.54L530.948 21.7282C530.002 21.5953 529.038 21.7361 528.17 22.1341L520.711 25.552C519.842 25.95 518.878 26.0908 517.932 25.9579L515.693 25.6431C515.063 25.5546 514.422 25.5871 513.804 25.7388L506.853 27.4462C505.62 27.7493 504.548 28.5103 503.855 29.575L502.109 32.2592C501.69 32.903 501.128 33.4416 500.467 33.8333L476.567 48.0017C475.964 48.3589 475.293 48.5856 474.597 48.6669L471.292 49.0531C469.716 49.2372 468.322 50.1579 467.533 51.5343L462.574 60.1926C462.258 60.7447 462.05 61.352 461.962 61.9819L450.548 143.221L449.814 148.402M406.072 531.5C460.183 539.191 490.353 544.365 544.813 550.246M406.072 531.5L423.429 408M544.813 550.246L562.064 427.5M423.429 408C476.785 416.548 507.073 420.937 562.064 427.5" stroke="url(#paint2_radial)" stroke-width="15" stroke-linecap="round" stroke-linejoin="round"/>
<path d="M462.095 61.0226L449.814 148.402M620.537 83.2903L617.326 70.2161M620.537 83.2903L608.365 169.902M620.537 83.2903L617.327 70.2218M420.343 358.103C481.718 370.311 516.464 374.879 578.786 380.371M420.343 358.103L427.462 379.3M420.343 358.103L449.814 148.402M578.786 380.371L566.099 398.784M578.786 380.371L608.365 169.902M389.725 575.962C451.428 587.93 486.112 592.906 548.167 598.23M389.725 575.962L402.411 557.548M389.725 575.962L331.411 990.884C331.027 993.619 332.932 996.147 335.667 996.532L348.201 998.293C349.671 998.5 351.156 998.043 352.256 997.046L373.666 977.636L380.967 972.134C383.173 970.473 386.308 970.913 387.97 973.119L393.471 980.42M548.167 598.23L541.048 577.033M548.167 598.23L489.854 1013.15C489.47 1015.89 486.941 1017.79 484.207 1017.41L471.672 1015.65C470.202 1015.44 468.901 1014.59 468.118 1013.33L452.887 988.77L447.386 981.469C445.724 979.264 442.589 978.823 440.383 980.485L433.082 985.987M402.411 557.548C456.484 567.642 486.87 571.8 541.048 577.033M402.411 557.548L406.072 531.5M541.048 577.033L544.813 550.246M427.462 379.3C481.284 391.246 511.678 394.9 566.099 398.784M427.462 379.3L423.429 408M566.099 398.784L562.064 427.5M393.471 980.42L413.17 951.827C415.508 948.434 420.716 949.166 422.027 953.072L433.082 985.987M393.471 980.42C385.19 992.44 381.178 1000.54 376.86 1009.87C374.959 1013.97 379.093 1018.39 383.391 1016.98C404.345 1010.13 415.039 1011.8 433.332 1024.35C436.973 1026.84 442.003 1023.96 441.399 1019.59C439.809 1008.08 437.835 998.538 433.082 985.987M617.327 70.2218L620.309 82.361C620.461 82.9786 620.493 83.6196 620.405 84.2494L608.99 165.489L608.365 169.902M617.327 70.2218L612.21 68.9079C611.295 68.673 610.465 68.1837 609.817 67.4967L591.117 47.6808C590.522 47.0504 590.101 46.2762 589.896 45.4342L588.996 41.747C588.671 40.4149 587.813 39.2747 586.624 38.5933L580.561 35.1209C580.009 34.8048 579.402 34.5969 578.772 34.5083L576.532 34.1936C575.586 34.0606 574.698 33.6595 573.973 33.0375L567.745 27.6961C567.02 27.0742 566.132 26.673 565.186 26.54L530.948 21.7282C530.002 21.5953 529.038 21.7361 528.17 22.1341L520.711 25.552C519.842 25.95 518.878 26.0908 517.932 25.9579L515.693 25.6431C515.063 25.5546 514.422 25.5871 513.804 25.7388L506.853 27.4462C505.62 27.7493 504.548 28.5103 503.855 29.575L502.109 32.2592C501.69 32.903 501.128 33.4416 500.467 33.8333L476.567 48.0017C475.964 48.3589 475.293 48.5856 474.597 48.6669L471.292 49.0531C469.716 49.2372 468.322 50.1579 467.533 51.5343L462.574 60.1926C462.258 60.7447 462.05 61.352 461.962 61.9819L450.548 143.221L449.814 148.402M406.072 531.5C460.183 539.191 490.353 544.365 544.813 550.246M406.072 531.5L423.429 408M544.813 550.246L562.064 427.5M423.429 408C476.785 416.548 507.073 420.937 562.064 427.5" stroke="url(#paint3_radial)" stroke-width="15" stroke-linecap="round" stroke-linejoin="round"/>
</g>
<g filter="url(#filter1_d)">
<path d="M7.75092 345.841C-6.97493 416.49 22.0442 444.994 88.0133 465.485C215.953 509.164 717.619 597.323 943.513 558.941C985.594 547.246 997.688 528.555 1003.39 477.379C1006.01 453.79 1000.89 447.893 974.998 432.7C956.372 421.161 911.917 408.137 851.756 395.093C902.732 409.899 979.696 424.003 909.129 445.792C877.603 455.068 792.341 452.284 687 442.492C554.951 430.219 391.852 405.929 263 381.591C177.863 365.51 107.895 348.969 72.2211 334.839C55.6288 327.442 55.6569 321.484 80.6452 318.794C37.7772 322.895 10.5915 332.213 7.75092 345.841Z" fill="#222222"/>
<path d="M7.75092 345.841C-6.97493 416.49 22.0442 444.994 88.0133 465.485C215.953 509.164 717.619 597.323 943.513 558.941C985.594 547.246 997.688 528.555 1003.39 477.379C1006.01 453.79 1000.89 447.893 974.998 432.7C956.372 421.161 911.917 408.137 851.756 395.093C902.732 409.899 979.696 424.003 909.129 445.792C877.603 455.068 792.341 452.284 687 442.492C554.951 430.219 391.852 405.929 263 381.591C177.863 365.51 107.895 348.969 72.2211 334.839C55.6288 327.442 55.6569 321.484 80.6452 318.794C37.7772 322.895 10.5915 332.213 7.75092 345.841Z" fill="#646464"/>
<path d="M80.6452 318.794C55.6569 321.484 55.6288 327.442 72.2211 334.839C107.895 348.969 177.863 365.51 263 381.591C317.72 391.547 379.507 402.871 424.5 409.188L428.728 382.275C428.804 381.694 428.751 381.102 428.573 380.544L422.121 360.265C421.938 359.691 421.887 359.082 421.973 358.485L425.5 331.688C289.071 318.416 157.357 311.453 80.6452 318.794Z" fill="#222222"/>
<path d="M80.6452 318.794C55.6569 321.484 55.6288 327.442 72.2211 334.839C107.895 348.969 177.863 365.51 263 381.591C317.72 391.547 379.507 402.871 424.5 409.188L428.728 382.275C428.804 381.694 428.751 381.102 428.573 380.544L422.121 360.265C421.938 359.691 421.887 359.082 421.973 358.485L425.5 331.688C289.071 318.416 157.357 311.453 80.6452 318.794Z" fill="#646464"/>
<path d="M909.129 445.792C979.696 424.003 902.732 409.899 851.756 395.093C780.379 379.618 682.708 363.589 584 350.5L579.623 380.063C579.542 380.679 579.319 381.268 578.971 381.783L567.522 398.728C567.179 399.236 566.957 399.816 566.873 400.424L563.541 424.726C563.242 426.907 562.954 428.665 563.103 428.684C598.573 433.574 647.171 438.551 687 442.492C792.341 452.284 877.603 455.068 909.129 445.792Z" fill="#222222"/>
<path d="M909.129 445.792C979.696 424.003 902.732 409.899 851.756 395.093C780.379 379.618 682.708 363.589 584 350.5L579.623 380.063C579.542 380.679 579.319 381.268 578.971 381.783L567.522 398.728C567.179 399.236 566.957 399.816 566.873 400.424L563.541 424.726C563.242 426.907 562.954 428.665 563.103 428.684C598.573 433.574 647.171 438.551 687 442.492C792.341 452.284 877.603 455.068 909.129 445.792Z" fill="#646464"/>
</g>
<g filter="url(#filter2_d)">
<path fill-rule="evenodd" clip-rule="evenodd" d="M425.188 409.65C374.573 401.803 325.024 393.392 279.283 384.936C295.337 388.006 311.543 391.293 327.494 394.527C365 402.132 396.887 405.887 425.188 409.65Z" fill="#222222"/>
<path fill-rule="evenodd" clip-rule="evenodd" d="M425.188 409.65C374.573 401.803 325.024 393.392 279.283 384.936C295.337 388.006 311.543 391.293 327.494 394.527C365 402.132 396.887 405.887 425.188 409.65Z" fill="#BABABA"/>
<path fill-rule="evenodd" clip-rule="evenodd" d="M563 429.161C589.377 432.52 615.366 435.595 640.571 438.311C613.161 435.466 585.941 432.411 563 429.161Z" fill="#222222"/>
<path fill-rule="evenodd" clip-rule="evenodd" d="M563 429.161C589.377 432.52 615.366 435.595 640.571 438.311C613.161 435.466 585.941 432.411 563 429.161Z" fill="#BABABA"/>
<path fill-rule="evenodd" clip-rule="evenodd" d="M279.283 384.936C295.337 388.006 311.543 391.293 327.494 394.527C365 402.132 396.887 405.887 425.188 409.65C374.573 401.803 325.024 393.392 279.283 384.936ZM640.571 438.311C613.161 435.466 585.941 432.411 563 429.161C589.377 432.52 615.366 435.595 640.571 438.311Z" fill="#222222"/>
<path fill-rule="evenodd" clip-rule="evenodd" d="M279.283 384.936C295.337 388.006 311.543 391.293 327.494 394.527C365 402.132 396.887 405.887 425.188 409.65C374.573 401.803 325.024 393.392 279.283 384.936ZM640.571 438.311C613.161 435.466 585.941 432.411 563 429.161C589.377 432.52 615.366 435.595 640.571 438.311Z" fill="#BABABA"/>
<path d="M7.75092 346.331C-6.97493 416.98 22.0442 445.485 88.0133 465.975C215.953 509.655 717.619 597.813 943.513 559.431C985.594 547.737 997.688 529.046 1003.39 477.87C1006.01 454.281 1000.89 448.383 974.998 433.19C956.372 421.651 911.917 408.628 851.756 395.584C902.732 410.389 979.696 424.493 909.129 446.283C877.603 455.559 792.341 452.774 687 442.983C671.897 441.579 656.388 440.016 640.571 438.311C613.161 435.466 585.941 432.411 563 429.161C517.541 423.373 470.929 416.742 425.188 409.65C396.887 405.887 365 402.132 327.494 394.527C311.543 391.293 295.337 388.006 279.283 384.936C273.799 383.922 268.37 382.907 263 381.893C177.863 365.812 107.895 349.271 72.2211 335.141C55.6288 327.744 55.6569 321.786 80.6452 319.096C37.7772 323.198 10.5915 332.703 7.75092 346.331Z" fill="#222222"/>
<path d="M7.75092 346.331C-6.97493 416.98 22.0442 445.485 88.0133 465.975C215.953 509.655 717.619 597.813 943.513 559.431C985.594 547.737 997.688 529.046 1003.39 477.87C1006.01 454.281 1000.89 448.383 974.998 433.19C956.372 421.651 911.917 408.628 851.756 395.584C902.732 410.389 979.696 424.493 909.129 446.283C877.603 455.559 792.341 452.774 687 442.983C671.897 441.579 656.388 440.016 640.571 438.311C613.161 435.466 585.941 432.411 563 429.161C517.541 423.373 470.929 416.742 425.188 409.65C396.887 405.887 365 402.132 327.494 394.527C311.543 391.293 295.337 388.006 279.283 384.936C273.799 383.922 268.37 382.907 263 381.893C177.863 365.812 107.895 349.271 72.2211 335.141C55.6288 327.744 55.6569 321.786 80.6452 319.096C37.7772 323.198 10.5915 332.703 7.75092 346.331Z" fill="#BABABA"/>
</g>
<g filter="url(#filter3_d)">
<path fill-rule="evenodd" clip-rule="evenodd" d="M404.268 911.778C403.025 911.603 402.159 910.454 402.334 909.211L403.915 897.959C404.964 890.501 411.859 885.305 419.316 886.353C426.774 887.402 431.969 894.297 430.921 901.754L430.127 907.408C429.866 909.266 431.155 910.986 433.011 911.256L449.906 913.717C451.148 913.898 452.008 915.051 451.827 916.293C451.646 917.535 450.493 918.395 449.251 918.214L432.356 915.754C428.024 915.123 425.016 911.111 425.626 906.776L426.42 901.122C427.119 896.15 423.655 891.553 418.684 890.854C413.712 890.156 409.115 893.62 408.416 898.591L406.835 909.844C406.66 911.087 405.511 911.953 404.268 911.778Z" fill="white"/>
<path fill-rule="evenodd" clip-rule="evenodd" d="M404.268 911.778C403.025 911.603 402.159 910.454 402.334 909.211L403.915 897.959C404.964 890.501 411.859 885.305 419.316 886.353C426.774 887.402 431.969 894.297 430.921 901.754L430.127 907.408C429.866 909.266 431.155 910.986 433.011 911.256L449.906 913.717C451.148 913.898 452.008 915.051 451.827 916.293C451.646 917.535 450.493 918.395 449.251 918.214L432.356 915.754C428.024 915.123 425.016 911.111 425.626 906.776L426.42 901.122C427.119 896.15 423.655 891.553 418.684 890.854C413.712 890.156 409.115 893.62 408.416 898.591L406.835 909.844C406.66 911.087 405.511 911.953 404.268 911.778Z" fill="#222222"/>
<path fill-rule="evenodd" clip-rule="evenodd" d="M430.63 724.199C429.387 724.024 428.521 722.875 428.695 721.632L430.277 710.379C431.325 702.922 438.22 697.726 445.677 698.774C453.135 699.822 458.331 706.717 457.283 714.175L456.488 719.829C456.227 721.687 457.516 723.407 459.372 723.677L476.267 726.138C477.509 726.318 478.369 727.472 478.189 728.714C478.008 729.956 476.854 730.816 475.612 730.635L458.717 728.175C454.386 727.544 451.378 723.531 451.987 719.197L452.782 713.542C453.48 708.571 450.016 703.974 445.045 703.275C440.073 702.577 435.476 706.04 434.778 711.012L433.196 722.264C433.022 723.507 431.872 724.373 430.63 724.199Z" fill="#6FBAFF"/>
<path fill-rule="evenodd" clip-rule="evenodd" d="M425.54 760.432C424.297 760.257 423.431 759.108 423.605 757.865L425.187 746.613C426.235 739.155 433.13 733.96 440.587 735.008C448.045 736.056 453.241 742.951 452.193 750.408C451.891 752.556 454.336 753.996 456.068 752.691L472.661 740.187C473.663 739.432 475.088 739.632 475.843 740.635C476.599 741.637 476.398 743.062 475.396 743.817L458.803 756.321C453.837 760.063 446.826 755.933 447.692 749.776C448.39 744.804 444.926 740.207 439.955 739.509C434.983 738.81 430.386 742.274 429.688 747.245L428.106 758.498C427.932 759.741 426.782 760.607 425.54 760.432Z" fill="white"/>
<path fill-rule="evenodd" clip-rule="evenodd" d="M425.54 760.432C424.297 760.257 423.431 759.108 423.605 757.865L425.187 746.613C426.235 739.155 433.13 733.96 440.587 735.008C448.045 736.056 453.241 742.951 452.193 750.408C451.891 752.556 454.336 753.996 456.068 752.691L472.661 740.187C473.663 739.432 475.088 739.632 475.843 740.635C476.599 741.637 476.398 743.062 475.396 743.817L458.803 756.321C453.837 760.063 446.826 755.933 447.692 749.776C448.39 744.804 444.926 740.207 439.955 739.509C434.983 738.81 430.386 742.274 429.688 747.245L428.106 758.498C427.932 759.741 426.782 760.607 425.54 760.432Z" fill="#222222"/>
<path fill-rule="evenodd" clip-rule="evenodd" d="M413.32 863.708C412.477 869.711 415.864 874.393 419.923 874.963L444.38 878.4C448.439 878.971 452.986 875.404 453.829 869.401C454.673 863.398 451.285 858.716 447.227 858.146L422.769 854.709C418.711 854.138 414.164 857.705 413.32 863.708ZM419.29 879.464C411.998 878.439 407.742 870.744 408.82 863.075C409.897 855.407 416.11 849.183 423.402 850.208L447.859 853.645C455.151 854.67 459.408 862.365 458.33 870.034C457.252 877.702 451.04 883.926 443.748 882.901L419.29 879.464Z" fill="white"/>
<path fill-rule="evenodd" clip-rule="evenodd" d="M413.32 863.708C412.477 869.711 415.864 874.393 419.923 874.963L444.38 878.4C448.439 878.971 452.986 875.404 453.829 869.401C454.673 863.398 451.285 858.716 447.227 858.146L422.769 854.709C418.711 854.138 414.164 857.705 413.32 863.708ZM419.29 879.464C411.998 878.439 407.742 870.744 408.82 863.075C409.897 855.407 416.11 849.183 423.402 850.208L447.859 853.645C455.151 854.67 459.408 862.365 458.33 870.034C457.252 877.702 451.04 883.926 443.748 882.901L419.29 879.464Z" fill="#222222"/>
<path fill-rule="evenodd" clip-rule="evenodd" d="M439.697 676.019C438.854 682.022 442.241 686.704 446.3 687.274L470.757 690.712C474.816 691.282 479.362 687.715 480.206 681.712C481.05 675.709 477.662 671.028 473.604 670.457L449.146 667.02C445.088 666.449 440.541 670.016 439.697 676.019ZM445.667 691.775C438.375 690.75 434.119 683.055 435.196 675.387C436.274 667.718 442.487 661.494 449.779 662.519L474.236 665.956C481.528 666.981 485.785 674.676 484.707 682.345C483.629 690.014 477.417 696.237 470.125 695.212L445.667 691.775Z" fill="#6FBAFF"/>
<path fill-rule="evenodd" clip-rule="evenodd" d="M440.452 654.322C439.209 654.148 438.343 652.999 438.517 651.756L440.099 640.503C441.119 633.242 447.417 627.762 454.523 628.761L478.981 632.198C486.087 633.197 490.63 640.201 489.61 647.461L488.028 658.714C487.853 659.957 486.704 660.823 485.461 660.648C484.218 660.473 483.352 659.324 483.527 658.081L485.109 646.829C485.835 641.661 482.593 637.296 478.348 636.699L453.891 633.262C449.646 632.665 445.326 635.968 444.6 641.136L443.018 652.388C442.844 653.631 441.695 654.497 440.452 654.322Z" fill="#6FBAFF"/>
<path fill-rule="evenodd" clip-rule="evenodd" d="M412.361 837.871C412.536 836.628 413.685 835.762 414.928 835.936L450.936 840.997C454.664 841.521 458.112 838.923 458.636 835.194L460.85 819.441C461.025 818.198 462.174 817.332 463.417 817.507C464.66 817.682 465.526 818.831 465.351 820.074L463.137 835.827C462.264 842.042 456.518 846.371 450.303 845.498L414.295 840.437C413.052 840.263 412.187 839.114 412.361 837.871Z" fill="white"/>
<path fill-rule="evenodd" clip-rule="evenodd" d="M412.361 837.871C412.536 836.628 413.685 835.762 414.928 835.936L450.936 840.997C454.664 841.521 458.112 838.923 458.636 835.194L460.85 819.441C461.025 818.198 462.174 817.332 463.417 817.507C464.66 817.682 465.526 818.831 465.351 820.074L463.137 835.827C462.264 842.042 456.518 846.371 450.303 845.498L414.295 840.437C413.052 840.263 412.187 839.114 412.361 837.871Z" fill="#222222"/>
<path fill-rule="evenodd" clip-rule="evenodd" d="M424.032 790.369C418.25 787.426 419.458 778.834 425.827 777.599L469.467 769.14C470.699 768.901 471.892 769.706 472.131 770.938C472.37 772.17 471.564 773.363 470.332 773.602L426.692 782.061C424.569 782.473 424.166 785.337 426.094 786.318L465.712 806.478C466.83 807.048 467.276 808.416 466.706 809.534C466.137 810.653 464.769 811.098 463.65 810.529L424.032 790.369Z" fill="white"/>
<path fill-rule="evenodd" clip-rule="evenodd" d="M424.032 790.369C418.25 787.426 419.458 778.834 425.827 777.599L469.467 769.14C470.699 768.901 471.892 769.706 472.131 770.938C472.37 772.17 471.564 773.363 470.332 773.602L426.692 782.061C424.569 782.473 424.166 785.337 426.094 786.318L465.712 806.478C466.83 807.048 467.276 808.416 466.706 809.534C466.137 810.653 464.769 811.098 463.65 810.529L424.032 790.369Z" fill="#222222"/>
</g>
<defs>
<filter id="filter0_d" x="316.23" y="0.529175" width="333.533" height="1054.38" filterUnits="userSpaceOnUse" color-interpolation-filters="sRGB">
<feFlood flood-opacity="0" result="BackgroundImageFix"/>
<feColorMatrix in="SourceAlpha" type="matrix" values="0 0 0 0 0 0 0 0 0 0 0 0 0 0 0 0 0 0 127 0"/>
<feOffset dx="5" dy="5"/>
<feGaussianBlur stdDeviation="4.5"/>
<feColorMatrix type="matrix" values="0 0 0 0 0 0 0 0 0 0 0 0 0 0 0 0 0 0 0.2 0"/>
<feBlend mode="normal" in2="BackgroundImageFix" result="effect1_dropShadow"/>
<feBlend mode="normal" in="SourceGraphic" in2="effect1_dropShadow" result="shape"/>
</filter>
<filter id="filter1_d" x="0" y="311.816" width="1018" height="270.569" filterUnits="userSpaceOnUse" color-interpolation-filters="sRGB">
<feFlood flood-opacity="0" result="BackgroundImageFix"/>
<feColorMatrix in="SourceAlpha" type="matrix" values="0 0 0 0 0 0 0 0 0 0 0 0 0 0 0 0 0 0 127 0"/>
<feOffset dx="5" dy="5"/>
<feGaussianBlur stdDeviation="4.5"/>
<feColorMatrix type="matrix" values="0 0 0 0 0 0 0 0 0 0 0 0 0 0 0 0 0 0 0.2 0"/>
<feBlend mode="normal" in2="BackgroundImageFix" result="effect1_dropShadow"/>
<feBlend mode="normal" in="SourceGraphic" in2="effect1_dropShadow" result="shape"/>
</filter>
<filter id="filter2_d" x="0" y="312" width="1018" height="270.876" filterUnits="userSpaceOnUse" color-interpolation-filters="sRGB">
<feFlood flood-opacity="0" result="BackgroundImageFix"/>
<feColorMatrix in="SourceAlpha" type="matrix" values="0 0 0 0 0 0 0 0 0 0 0 0 0 0 0 0 0 0 127 0"/>
<feOffset dx="5" dy="5"/>
<feGaussianBlur stdDeviation="4.5"/>
<feColorMatrix type="matrix" values="0 0 0 0 0 0 0 0 0 0 0 0 0 0 0 0 0 0 0.2 0"/>
<feBlend mode="normal" in2="BackgroundImageFix" result="effect1_dropShadow"/>
<feBlend mode="normal" in="SourceGraphic" in2="effect1_dropShadow" result="shape"/>
</filter>
<filter id="filter3_d" x="395.002" y="620" width="103.505" height="305.532" filterUnits="userSpaceOnUse" color-interpolation-filters="sRGB">
<feFlood flood-opacity="0" result="BackgroundImageFix"/>
<feColorMatrix in="SourceAlpha" type="matrix" values="0 0 0 0 0 0 0 0 0 0 0 0 0 0 0 0 0 0 127 0"/>
<feOffset/>
<feGaussianBlur stdDeviation="3.5"/>
<feColorMatrix type="matrix" values="0 0 0 0 0 0 0 0 0 0 0 0 0 0 0 0 0 0 0.35 0"/>
<feBlend mode="normal" in2="BackgroundImageFix" result="effect1_dropShadow"/>
<feBlend mode="normal" in="SourceGraphic" in2="effect1_dropShadow" result="shape"/>
</filter>
<linearGradient id="paint0_linear" x1="409.264" y1="1025.01" x2="325.68" y2="1277.72" gradientUnits="userSpaceOnUse">
<stop stop-color="#4DBFFF"/>
<stop offset="1" stop-color="#7DCBF7" stop-opacity="0"/>
</linearGradient>
<radialGradient id="paint1_radial" cx="0" cy="0" r="1" gradientUnits="userSpaceOnUse" gradientTransform="translate(558.292 -48.6291) rotate(-82) scale(217.095 40.4074)">
<stop offset="0.067379" stop-color="#0085FF" stop-opacity="0.55"/>
<stop offset="1" stop-color="#91D1FF" stop-opacity="0"/>
</radialGradient>
<radialGradient id="paint2_radial" cx="0" cy="0" r="1" gradientUnits="userSpaceOnUse" gradientTransform="translate(493.581 53.9022) rotate(-116.996) scale(29.7405 31.4008)">
<stop offset="0.129068" stop-color="#0085FF" stop-opacity="0.66"/>
<stop offset="1" stop-color="#90D1FF" stop-opacity="0"/>
</radialGradient>
<radialGradient id="paint3_radial" cx="0" cy="0" r="1" gradientUnits="userSpaceOnUse" gradientTransform="translate(592.081 67.4022) rotate(-41.1859) scale(31.8904 31.1411)">
<stop offset="0.0317073" stop-color="#0085FF" stop-opacity="0.7"/>
<stop offset="1" stop-color="#91E4FF" stop-opacity="0"/>
</radialGradient>
</defs>
</svg>
