<svg width="1500" height="500" viewBox="0 0 1500 500" fill="none" xmlns="http://www.w3.org/2000/svg">
<path fill-rule="evenodd" clip-rule="evenodd" d="M118.5 150C118.5 144.477 122.977 140 128.5 140H178.5C211.637 140 238.5 166.863 238.5 200C238.5 233.137 211.637 260 178.5 260H153.375C145.12 260 138.417 266.67 138.376 274.925L138 350.05C137.972 355.573 133.473 360.027 127.95 360C122.427 359.972 117.973 355.473 118 349.95L118.376 274.825C118.472 255.564 134.114 240 153.375 240H178.5C200.591 240 218.5 222.091 218.5 200C218.5 177.909 200.591 160 178.5 160H128.5C122.977 160 118.5 155.523 118.5 150Z" fill="white"/>
<path fill-rule="evenodd" clip-rule="evenodd" d="M952 150C952 144.477 956.477 140 962 140H1012C1045.14 140 1072 166.863 1072 200C1072 233.137 1045.14 260 1012 260H986.875C978.62 260 971.917 266.67 971.876 274.925L971.5 350.05C971.472 355.573 966.973 360.027 961.45 360C955.927 359.972 951.473 355.473 951.5 349.95L951.876 274.825C951.972 255.564 967.614 240 986.875 240H1012C1034.09 240 1052 222.091 1052 200C1052 177.909 1034.09 160 1012 160H962C956.477 160 952 155.523 952 150Z" fill="#6FBAFF"/>
<path fill-rule="evenodd" clip-rule="evenodd" d="M791 150C791 144.477 795.477 140 801 140H851C884.137 140 911 166.863 911 200C911 233.137 884.137 260 851 260C841.458 260 836.679 271.537 843.426 278.284L908.071 342.929C911.976 346.834 911.976 353.166 908.071 357.071C904.166 360.976 897.834 360.976 893.929 357.071L829.284 292.426C809.938 273.08 823.64 240 851 240C873.091 240 891 222.091 891 200C891 177.909 873.091 160 851 160H801C795.477 160 791 155.523 791 150Z" fill="white"/>
<path fill-rule="evenodd" clip-rule="evenodd" d="M333.5 160C306.825 160 288.5 177.628 288.5 195.662V304.338C288.5 322.372 306.825 340 333.5 340C360.175 340 378.5 322.372 378.5 304.338V195.662C378.5 177.628 360.175 160 333.5 160ZM268.5 195.662C268.5 163.26 299.424 140 333.5 140C367.576 140 398.5 163.26 398.5 195.662V304.338C398.5 336.74 367.576 360 333.5 360C299.424 360 268.5 336.74 268.5 304.338V195.662Z" fill="white"/>
<path fill-rule="evenodd" clip-rule="evenodd" d="M1167.5 160C1140.82 160 1122.5 177.628 1122.5 195.662V304.338C1122.5 322.372 1140.82 340 1167.5 340C1194.18 340 1212.5 322.372 1212.5 304.338V195.662C1212.5 177.628 1194.18 160 1167.5 160ZM1102.5 195.662C1102.5 163.26 1133.42 140 1167.5 140C1201.58 140 1232.5 163.26 1232.5 195.662V304.338C1232.5 336.74 1201.58 360 1167.5 360C1133.42 360 1102.5 336.74 1102.5 304.338V195.662Z" fill="#6FBAFF"/>
<path fill-rule="evenodd" clip-rule="evenodd" d="M1262.5 150C1262.5 144.477 1266.98 140 1272.5 140H1322.5C1354.76 140 1382.5 164.086 1382.5 195.662V304.338C1382.5 335.914 1354.76 360 1322.5 360H1272.5C1266.98 360 1262.5 355.523 1262.5 350C1262.5 344.477 1266.98 340 1272.5 340H1322.5C1345.46 340 1362.5 323.199 1362.5 304.338V195.662C1362.5 176.801 1345.46 160 1322.5 160H1272.5C1266.98 160 1262.5 155.523 1262.5 150Z" fill="#6FBAFF"/>
<path fill-rule="evenodd" clip-rule="evenodd" d="M445.5 140C451.023 140 455.5 144.477 455.5 150V310C455.5 326.569 468.931 340 485.5 340H555.5C561.023 340 565.5 344.477 565.5 350C565.5 355.523 561.023 360 555.5 360H485.5C457.886 360 435.5 337.614 435.5 310V150C435.5 144.477 439.977 140 445.5 140Z" fill="white"/>
<path fill-rule="evenodd" clip-rule="evenodd" d="M659.632 161.771C668.912 134.774 707.093 134.774 716.373 161.771L779.96 346.749C781.755 351.972 778.976 357.662 773.754 359.457C768.531 361.252 762.841 358.474 761.046 353.251L697.46 168.273C694.366 159.274 681.639 159.274 678.546 168.273L614.96 353.251C613.164 358.474 607.475 361.252 602.252 359.457C597.029 357.662 594.25 351.972 596.046 346.749L659.632 161.771Z" fill="white"/>
</svg>
