<?xml version="1.0" standalone="yes"?>
<svg xmlns="http://www.w3.org/2000/svg" version="1.1" width="100" height="100">
<rect x="0" y="0" width="100" height="100" style="fill:transparent;shape-rendering:crispEdges;"/>
<rect x="4.3478260869565215" y="4.3478260869565215" width="4.3478260869565215" height="4.3478260869565215" style="fill:#222222;shape-rendering:crispEdges;"/>
<rect x="8.695652173913043" y="4.3478260869565215" width="4.3478260869565215" height="4.3478260869565215" style="fill:#222222;shape-rendering:crispEdges;"/>
<rect x="13.043478260869565" y="4.3478260869565215" width="4.3478260869565215" height="4.3478260869565215" style="fill:#222222;shape-rendering:crispEdges;"/>
<rect x="17.391304347826086" y="4.3478260869565215" width="4.3478260869565215" height="4.3478260869565215" style="fill:#222222;shape-rendering:crispEdges;"/>
<rect x="21.73913043478261" y="4.3478260869565215" width="4.3478260869565215" height="4.3478260869565215" style="fill:#222222;shape-rendering:crispEdges;"/>
<rect x="26.086956521739133" y="4.3478260869565215" width="4.3478260869565215" height="4.3478260869565215" style="fill:#222222;shape-rendering:crispEdges;"/>
<rect x="30.43478260869565" y="4.3478260869565215" width="4.3478260869565215" height="4.3478260869565215" style="fill:#222222;shape-rendering:crispEdges;"/>
<rect x="39.130434782608695" y="4.3478260869565215" width="4.3478260869565215" height="4.3478260869565215" style="fill:#222222;shape-rendering:crispEdges;"/>
<rect x="47.82608695652174" y="4.3478260869565215" width="4.3478260869565215" height="4.3478260869565215" style="fill:#222222;shape-rendering:crispEdges;"/>
<rect x="65.21739130434781" y="4.3478260869565215" width="4.3478260869565215" height="4.3478260869565215" style="fill:#222222;shape-rendering:crispEdges;"/>
<rect x="69.56521739130434" y="4.3478260869565215" width="4.3478260869565215" height="4.3478260869565215" style="fill:#222222;shape-rendering:crispEdges;"/>
<rect x="73.91304347826086" y="4.3478260869565215" width="4.3478260869565215" height="4.3478260869565215" style="fill:#222222;shape-rendering:crispEdges;"/>
<rect x="78.26086956521738" y="4.3478260869565215" width="4.3478260869565215" height="4.3478260869565215" style="fill:#222222;shape-rendering:crispEdges;"/>
<rect x="82.6086956521739" y="4.3478260869565215" width="4.3478260869565215" height="4.3478260869565215" style="fill:#222222;shape-rendering:crispEdges;"/>
<rect x="86.95652173913042" y="4.3478260869565215" width="4.3478260869565215" height="4.3478260869565215" style="fill:#222222;shape-rendering:crispEdges;"/>
<rect x="91.30434782608695" y="4.3478260869565215" width="4.3478260869565215" height="4.3478260869565215" style="fill:#222222;shape-rendering:crispEdges;"/>
<rect x="4.3478260869565215" y="8.695652173913043" width="4.3478260869565215" height="4.3478260869565215" style="fill:#222222;shape-rendering:crispEdges;"/>
<rect x="30.43478260869565" y="8.695652173913043" width="4.3478260869565215" height="4.3478260869565215" style="fill:#222222;shape-rendering:crispEdges;"/>
<rect x="47.82608695652174" y="8.695652173913043" width="4.3478260869565215" height="4.3478260869565215" style="fill:#222222;shape-rendering:crispEdges;"/>
<rect x="56.52173913043478" y="8.695652173913043" width="4.3478260869565215" height="4.3478260869565215" style="fill:#222222;shape-rendering:crispEdges;"/>
<rect x="65.21739130434781" y="8.695652173913043" width="4.3478260869565215" height="4.3478260869565215" style="fill:#222222;shape-rendering:crispEdges;"/>
<rect x="91.30434782608695" y="8.695652173913043" width="4.3478260869565215" height="4.3478260869565215" style="fill:#222222;shape-rendering:crispEdges;"/>
<rect x="4.3478260869565215" y="13.043478260869565" width="4.3478260869565215" height="4.3478260869565215" style="fill:#222222;shape-rendering:crispEdges;"/>
<rect x="13.043478260869565" y="13.043478260869565" width="4.3478260869565215" height="4.3478260869565215" style="fill:#222222;shape-rendering:crispEdges;"/>
<rect x="17.391304347826086" y="13.043478260869565" width="4.3478260869565215" height="4.3478260869565215" style="fill:#222222;shape-rendering:crispEdges;"/>
<rect x="21.73913043478261" y="13.043478260869565" width="4.3478260869565215" height="4.3478260869565215" style="fill:#222222;shape-rendering:crispEdges;"/>
<rect x="30.43478260869565" y="13.043478260869565" width="4.3478260869565215" height="4.3478260869565215" style="fill:#222222;shape-rendering:crispEdges;"/>
<rect x="47.82608695652174" y="13.043478260869565" width="4.3478260869565215" height="4.3478260869565215" style="fill:#222222;shape-rendering:crispEdges;"/>
<rect x="52.17391304347826" y="13.043478260869565" width="4.3478260869565215" height="4.3478260869565215" style="fill:#222222;shape-rendering:crispEdges;"/>
<rect x="56.52173913043478" y="13.043478260869565" width="4.3478260869565215" height="4.3478260869565215" style="fill:#222222;shape-rendering:crispEdges;"/>
<rect x="65.21739130434781" y="13.043478260869565" width="4.3478260869565215" height="4.3478260869565215" style="fill:#222222;shape-rendering:crispEdges;"/>
<rect x="73.91304347826086" y="13.043478260869565" width="4.3478260869565215" height="4.3478260869565215" style="fill:#222222;shape-rendering:crispEdges;"/>
<rect x="78.26086956521738" y="13.043478260869565" width="4.3478260869565215" height="4.3478260869565215" style="fill:#222222;shape-rendering:crispEdges;"/>
<rect x="82.6086956521739" y="13.043478260869565" width="4.3478260869565215" height="4.3478260869565215" style="fill:#222222;shape-rendering:crispEdges;"/>
<rect x="91.30434782608695" y="13.043478260869565" width="4.3478260869565215" height="4.3478260869565215" style="fill:#222222;shape-rendering:crispEdges;"/>
<rect x="4.3478260869565215" y="17.391304347826086" width="4.3478260869565215" height="4.3478260869565215" style="fill:#222222;shape-rendering:crispEdges;"/>
<rect x="13.043478260869565" y="17.391304347826086" width="4.3478260869565215" height="4.3478260869565215" style="fill:#222222;shape-rendering:crispEdges;"/>
<rect x="17.391304347826086" y="17.391304347826086" width="4.3478260869565215" height="4.3478260869565215" style="fill:#222222;shape-rendering:crispEdges;"/>
<rect x="21.73913043478261" y="17.391304347826086" width="4.3478260869565215" height="4.3478260869565215" style="fill:#222222;shape-rendering:crispEdges;"/>
<rect x="30.43478260869565" y="17.391304347826086" width="4.3478260869565215" height="4.3478260869565215" style="fill:#222222;shape-rendering:crispEdges;"/>
<rect x="39.130434782608695" y="17.391304347826086" width="4.3478260869565215" height="4.3478260869565215" style="fill:#222222;shape-rendering:crispEdges;"/>
<rect x="47.82608695652174" y="17.391304347826086" width="4.3478260869565215" height="4.3478260869565215" style="fill:#222222;shape-rendering:crispEdges;"/>
<rect x="65.21739130434781" y="17.391304347826086" width="4.3478260869565215" height="4.3478260869565215" style="fill:#222222;shape-rendering:crispEdges;"/>
<rect x="73.91304347826086" y="17.391304347826086" width="4.3478260869565215" height="4.3478260869565215" style="fill:#222222;shape-rendering:crispEdges;"/>
<rect x="78.26086956521738" y="17.391304347826086" width="4.3478260869565215" height="4.3478260869565215" style="fill:#222222;shape-rendering:crispEdges;"/>
<rect x="82.6086956521739" y="17.391304347826086" width="4.3478260869565215" height="4.3478260869565215" style="fill:#222222;shape-rendering:crispEdges;"/>
<rect x="91.30434782608695" y="17.391304347826086" width="4.3478260869565215" height="4.3478260869565215" style="fill:#222222;shape-rendering:crispEdges;"/>
<rect x="4.3478260869565215" y="21.73913043478261" width="4.3478260869565215" height="4.3478260869565215" style="fill:#222222;shape-rendering:crispEdges;"/>
<rect x="13.043478260869565" y="21.73913043478261" width="4.3478260869565215" height="4.3478260869565215" style="fill:#222222;shape-rendering:crispEdges;"/>
<rect x="17.391304347826086" y="21.73913043478261" width="4.3478260869565215" height="4.3478260869565215" style="fill:#222222;shape-rendering:crispEdges;"/>
<rect x="21.73913043478261" y="21.73913043478261" width="4.3478260869565215" height="4.3478260869565215" style="fill:#222222;shape-rendering:crispEdges;"/>
<rect x="30.43478260869565" y="21.73913043478261" width="4.3478260869565215" height="4.3478260869565215" style="fill:#222222;shape-rendering:crispEdges;"/>
<rect x="52.17391304347826" y="21.73913043478261" width="4.3478260869565215" height="4.3478260869565215" style="fill:#222222;shape-rendering:crispEdges;"/>
<rect x="65.21739130434781" y="21.73913043478261" width="4.3478260869565215" height="4.3478260869565215" style="fill:#222222;shape-rendering:crispEdges;"/>
<rect x="73.91304347826086" y="21.73913043478261" width="4.3478260869565215" height="4.3478260869565215" style="fill:#222222;shape-rendering:crispEdges;"/>
<rect x="78.26086956521738" y="21.73913043478261" width="4.3478260869565215" height="4.3478260869565215" style="fill:#222222;shape-rendering:crispEdges;"/>
<rect x="82.6086956521739" y="21.73913043478261" width="4.3478260869565215" height="4.3478260869565215" style="fill:#222222;shape-rendering:crispEdges;"/>
<rect x="91.30434782608695" y="21.73913043478261" width="4.3478260869565215" height="4.3478260869565215" style="fill:#222222;shape-rendering:crispEdges;"/>
<rect x="4.3478260869565215" y="26.086956521739133" width="4.3478260869565215" height="4.3478260869565215" style="fill:#222222;shape-rendering:crispEdges;"/>
<rect x="30.43478260869565" y="26.086956521739133" width="4.3478260869565215" height="4.3478260869565215" style="fill:#222222;shape-rendering:crispEdges;"/>
<rect x="39.130434782608695" y="26.086956521739133" width="4.3478260869565215" height="4.3478260869565215" style="fill:#222222;shape-rendering:crispEdges;"/>
<rect x="52.17391304347826" y="26.086956521739133" width="4.3478260869565215" height="4.3478260869565215" style="fill:#222222;shape-rendering:crispEdges;"/>
<rect x="65.21739130434781" y="26.086956521739133" width="4.3478260869565215" height="4.3478260869565215" style="fill:#222222;shape-rendering:crispEdges;"/>
<rect x="91.30434782608695" y="26.086956521739133" width="4.3478260869565215" height="4.3478260869565215" style="fill:#222222;shape-rendering:crispEdges;"/>
<rect x="4.3478260869565215" y="30.43478260869565" width="4.3478260869565215" height="4.3478260869565215" style="fill:#222222;shape-rendering:crispEdges;"/>
<rect x="8.695652173913043" y="30.43478260869565" width="4.3478260869565215" height="4.3478260869565215" style="fill:#222222;shape-rendering:crispEdges;"/>
<rect x="13.043478260869565" y="30.43478260869565" width="4.3478260869565215" height="4.3478260869565215" style="fill:#222222;shape-rendering:crispEdges;"/>
<rect x="17.391304347826086" y="30.43478260869565" width="4.3478260869565215" height="4.3478260869565215" style="fill:#222222;shape-rendering:crispEdges;"/>
<rect x="21.73913043478261" y="30.43478260869565" width="4.3478260869565215" height="4.3478260869565215" style="fill:#222222;shape-rendering:crispEdges;"/>
<rect x="26.086956521739133" y="30.43478260869565" width="4.3478260869565215" height="4.3478260869565215" style="fill:#222222;shape-rendering:crispEdges;"/>
<rect x="30.43478260869565" y="30.43478260869565" width="4.3478260869565215" height="4.3478260869565215" style="fill:#222222;shape-rendering:crispEdges;"/>
<rect x="39.130434782608695" y="30.43478260869565" width="4.3478260869565215" height="4.3478260869565215" style="fill:#222222;shape-rendering:crispEdges;"/>
<rect x="47.82608695652174" y="30.43478260869565" width="4.3478260869565215" height="4.3478260869565215" style="fill:#222222;shape-rendering:crispEdges;"/>
<rect x="56.52173913043478" y="30.43478260869565" width="4.3478260869565215" height="4.3478260869565215" style="fill:#222222;shape-rendering:crispEdges;"/>
<rect x="65.21739130434781" y="30.43478260869565" width="4.3478260869565215" height="4.3478260869565215" style="fill:#222222;shape-rendering:crispEdges;"/>
<rect x="69.56521739130434" y="30.43478260869565" width="4.3478260869565215" height="4.3478260869565215" style="fill:#222222;shape-rendering:crispEdges;"/>
<rect x="73.91304347826086" y="30.43478260869565" width="4.3478260869565215" height="4.3478260869565215" style="fill:#222222;shape-rendering:crispEdges;"/>
<rect x="78.26086956521738" y="30.43478260869565" width="4.3478260869565215" height="4.3478260869565215" style="fill:#222222;shape-rendering:crispEdges;"/>
<rect x="82.6086956521739" y="30.43478260869565" width="4.3478260869565215" height="4.3478260869565215" style="fill:#222222;shape-rendering:crispEdges;"/>
<rect x="86.95652173913042" y="30.43478260869565" width="4.3478260869565215" height="4.3478260869565215" style="fill:#222222;shape-rendering:crispEdges;"/>
<rect x="91.30434782608695" y="30.43478260869565" width="4.3478260869565215" height="4.3478260869565215" style="fill:#222222;shape-rendering:crispEdges;"/>
<rect x="52.17391304347826" y="34.78260869565217" width="4.3478260869565215" height="4.3478260869565215" style="fill:#222222;shape-rendering:crispEdges;"/>
<rect x="56.52173913043478" y="34.78260869565217" width="4.3478260869565215" height="4.3478260869565215" style="fill:#222222;shape-rendering:crispEdges;"/>
<rect x="26.086956521739133" y="39.130434782608695" width="4.3478260869565215" height="4.3478260869565215" style="fill:#222222;shape-rendering:crispEdges;"/>
<rect x="30.43478260869565" y="39.130434782608695" width="4.3478260869565215" height="4.3478260869565215" style="fill:#222222;shape-rendering:crispEdges;"/>
<rect x="39.130434782608695" y="39.130434782608695" width="4.3478260869565215" height="4.3478260869565215" style="fill:#222222;shape-rendering:crispEdges;"/>
<rect x="47.82608695652174" y="39.130434782608695" width="4.3478260869565215" height="4.3478260869565215" style="fill:#222222;shape-rendering:crispEdges;"/>
<rect x="52.17391304347826" y="39.130434782608695" width="4.3478260869565215" height="4.3478260869565215" style="fill:#222222;shape-rendering:crispEdges;"/>
<rect x="60.869565217391305" y="39.130434782608695" width="4.3478260869565215" height="4.3478260869565215" style="fill:#222222;shape-rendering:crispEdges;"/>
<rect x="69.56521739130434" y="39.130434782608695" width="4.3478260869565215" height="4.3478260869565215" style="fill:#222222;shape-rendering:crispEdges;"/>
<rect x="78.26086956521738" y="39.130434782608695" width="4.3478260869565215" height="4.3478260869565215" style="fill:#222222;shape-rendering:crispEdges;"/>
<rect x="91.30434782608695" y="39.130434782608695" width="4.3478260869565215" height="4.3478260869565215" style="fill:#222222;shape-rendering:crispEdges;"/>
<rect x="8.695652173913043" y="43.47826086956522" width="4.3478260869565215" height="4.3478260869565215" style="fill:#222222;shape-rendering:crispEdges;"/>
<rect x="17.391304347826086" y="43.47826086956522" width="4.3478260869565215" height="4.3478260869565215" style="fill:#222222;shape-rendering:crispEdges;"/>
<rect x="21.73913043478261" y="43.47826086956522" width="4.3478260869565215" height="4.3478260869565215" style="fill:#222222;shape-rendering:crispEdges;"/>
<rect x="34.78260869565217" y="43.47826086956522" width="4.3478260869565215" height="4.3478260869565215" style="fill:#222222;shape-rendering:crispEdges;"/>
<rect x="39.130434782608695" y="43.47826086956522" width="4.3478260869565215" height="4.3478260869565215" style="fill:#222222;shape-rendering:crispEdges;"/>
<rect x="43.47826086956522" y="43.47826086956522" width="4.3478260869565215" height="4.3478260869565215" style="fill:#222222;shape-rendering:crispEdges;"/>
<rect x="47.82608695652174" y="43.47826086956522" width="4.3478260869565215" height="4.3478260869565215" style="fill:#222222;shape-rendering:crispEdges;"/>
<rect x="52.17391304347826" y="43.47826086956522" width="4.3478260869565215" height="4.3478260869565215" style="fill:#222222;shape-rendering:crispEdges;"/>
<rect x="56.52173913043478" y="43.47826086956522" width="4.3478260869565215" height="4.3478260869565215" style="fill:#222222;shape-rendering:crispEdges;"/>
<rect x="60.869565217391305" y="43.47826086956522" width="4.3478260869565215" height="4.3478260869565215" style="fill:#222222;shape-rendering:crispEdges;"/>
<rect x="65.21739130434781" y="43.47826086956522" width="4.3478260869565215" height="4.3478260869565215" style="fill:#222222;shape-rendering:crispEdges;"/>
<rect x="73.91304347826086" y="43.47826086956522" width="4.3478260869565215" height="4.3478260869565215" style="fill:#222222;shape-rendering:crispEdges;"/>
<rect x="82.6086956521739" y="43.47826086956522" width="4.3478260869565215" height="4.3478260869565215" style="fill:#222222;shape-rendering:crispEdges;"/>
<rect x="4.3478260869565215" y="47.82608695652174" width="4.3478260869565215" height="4.3478260869565215" style="fill:#222222;shape-rendering:crispEdges;"/>
<rect x="17.391304347826086" y="47.82608695652174" width="4.3478260869565215" height="4.3478260869565215" style="fill:#222222;shape-rendering:crispEdges;"/>
<rect x="30.43478260869565" y="47.82608695652174" width="4.3478260869565215" height="4.3478260869565215" style="fill:#222222;shape-rendering:crispEdges;"/>
<rect x="43.47826086956522" y="47.82608695652174" width="4.3478260869565215" height="4.3478260869565215" style="fill:#222222;shape-rendering:crispEdges;"/>
<rect x="47.82608695652174" y="47.82608695652174" width="4.3478260869565215" height="4.3478260869565215" style="fill:#222222;shape-rendering:crispEdges;"/>
<rect x="52.17391304347826" y="47.82608695652174" width="4.3478260869565215" height="4.3478260869565215" style="fill:#222222;shape-rendering:crispEdges;"/>
<rect x="60.869565217391305" y="47.82608695652174" width="4.3478260869565215" height="4.3478260869565215" style="fill:#222222;shape-rendering:crispEdges;"/>
<rect x="65.21739130434781" y="47.82608695652174" width="4.3478260869565215" height="4.3478260869565215" style="fill:#222222;shape-rendering:crispEdges;"/>
<rect x="73.91304347826086" y="47.82608695652174" width="4.3478260869565215" height="4.3478260869565215" style="fill:#222222;shape-rendering:crispEdges;"/>
<rect x="86.95652173913042" y="47.82608695652174" width="4.3478260869565215" height="4.3478260869565215" style="fill:#222222;shape-rendering:crispEdges;"/>
<rect x="26.086956521739133" y="52.17391304347826" width="4.3478260869565215" height="4.3478260869565215" style="fill:#222222;shape-rendering:crispEdges;"/>
<rect x="34.78260869565217" y="52.17391304347826" width="4.3478260869565215" height="4.3478260869565215" style="fill:#222222;shape-rendering:crispEdges;"/>
<rect x="52.17391304347826" y="52.17391304347826" width="4.3478260869565215" height="4.3478260869565215" style="fill:#222222;shape-rendering:crispEdges;"/>
<rect x="60.869565217391305" y="52.17391304347826" width="4.3478260869565215" height="4.3478260869565215" style="fill:#222222;shape-rendering:crispEdges;"/>
<rect x="69.56521739130434" y="52.17391304347826" width="4.3478260869565215" height="4.3478260869565215" style="fill:#222222;shape-rendering:crispEdges;"/>
<rect x="73.91304347826086" y="52.17391304347826" width="4.3478260869565215" height="4.3478260869565215" style="fill:#222222;shape-rendering:crispEdges;"/>
<rect x="86.95652173913042" y="52.17391304347826" width="4.3478260869565215" height="4.3478260869565215" style="fill:#222222;shape-rendering:crispEdges;"/>
<rect x="4.3478260869565215" y="56.52173913043478" width="4.3478260869565215" height="4.3478260869565215" style="fill:#222222;shape-rendering:crispEdges;"/>
<rect x="13.043478260869565" y="56.52173913043478" width="4.3478260869565215" height="4.3478260869565215" style="fill:#222222;shape-rendering:crispEdges;"/>
<rect x="21.73913043478261" y="56.52173913043478" width="4.3478260869565215" height="4.3478260869565215" style="fill:#222222;shape-rendering:crispEdges;"/>
<rect x="26.086956521739133" y="56.52173913043478" width="4.3478260869565215" height="4.3478260869565215" style="fill:#222222;shape-rendering:crispEdges;"/>
<rect x="30.43478260869565" y="56.52173913043478" width="4.3478260869565215" height="4.3478260869565215" style="fill:#222222;shape-rendering:crispEdges;"/>
<rect x="34.78260869565217" y="56.52173913043478" width="4.3478260869565215" height="4.3478260869565215" style="fill:#222222;shape-rendering:crispEdges;"/>
<rect x="47.82608695652174" y="56.52173913043478" width="4.3478260869565215" height="4.3478260869565215" style="fill:#222222;shape-rendering:crispEdges;"/>
<rect x="56.52173913043478" y="56.52173913043478" width="4.3478260869565215" height="4.3478260869565215" style="fill:#222222;shape-rendering:crispEdges;"/>
<rect x="69.56521739130434" y="56.52173913043478" width="4.3478260869565215" height="4.3478260869565215" style="fill:#222222;shape-rendering:crispEdges;"/>
<rect x="82.6086956521739" y="56.52173913043478" width="4.3478260869565215" height="4.3478260869565215" style="fill:#222222;shape-rendering:crispEdges;"/>
<rect x="86.95652173913042" y="56.52173913043478" width="4.3478260869565215" height="4.3478260869565215" style="fill:#222222;shape-rendering:crispEdges;"/>
<rect x="91.30434782608695" y="56.52173913043478" width="4.3478260869565215" height="4.3478260869565215" style="fill:#222222;shape-rendering:crispEdges;"/>
<rect x="39.130434782608695" y="60.869565217391305" width="4.3478260869565215" height="4.3478260869565215" style="fill:#222222;shape-rendering:crispEdges;"/>
<rect x="47.82608695652174" y="60.869565217391305" width="4.3478260869565215" height="4.3478260869565215" style="fill:#222222;shape-rendering:crispEdges;"/>
<rect x="73.91304347826086" y="60.869565217391305" width="4.3478260869565215" height="4.3478260869565215" style="fill:#222222;shape-rendering:crispEdges;"/>
<rect x="78.26086956521738" y="60.869565217391305" width="4.3478260869565215" height="4.3478260869565215" style="fill:#222222;shape-rendering:crispEdges;"/>
<rect x="82.6086956521739" y="60.869565217391305" width="4.3478260869565215" height="4.3478260869565215" style="fill:#222222;shape-rendering:crispEdges;"/>
<rect x="86.95652173913042" y="60.869565217391305" width="4.3478260869565215" height="4.3478260869565215" style="fill:#222222;shape-rendering:crispEdges;"/>
<rect x="91.30434782608695" y="60.869565217391305" width="4.3478260869565215" height="4.3478260869565215" style="fill:#222222;shape-rendering:crispEdges;"/>
<rect x="4.3478260869565215" y="65.21739130434781" width="4.3478260869565215" height="4.3478260869565215" style="fill:#222222;shape-rendering:crispEdges;"/>
<rect x="8.695652173913043" y="65.21739130434781" width="4.3478260869565215" height="4.3478260869565215" style="fill:#222222;shape-rendering:crispEdges;"/>
<rect x="13.043478260869565" y="65.21739130434781" width="4.3478260869565215" height="4.3478260869565215" style="fill:#222222;shape-rendering:crispEdges;"/>
<rect x="17.391304347826086" y="65.21739130434781" width="4.3478260869565215" height="4.3478260869565215" style="fill:#222222;shape-rendering:crispEdges;"/>
<rect x="21.73913043478261" y="65.21739130434781" width="4.3478260869565215" height="4.3478260869565215" style="fill:#222222;shape-rendering:crispEdges;"/>
<rect x="26.086956521739133" y="65.21739130434781" width="4.3478260869565215" height="4.3478260869565215" style="fill:#222222;shape-rendering:crispEdges;"/>
<rect x="30.43478260869565" y="65.21739130434781" width="4.3478260869565215" height="4.3478260869565215" style="fill:#222222;shape-rendering:crispEdges;"/>
<rect x="52.17391304347826" y="65.21739130434781" width="4.3478260869565215" height="4.3478260869565215" style="fill:#222222;shape-rendering:crispEdges;"/>
<rect x="60.869565217391305" y="65.21739130434781" width="4.3478260869565215" height="4.3478260869565215" style="fill:#222222;shape-rendering:crispEdges;"/>
<rect x="65.21739130434781" y="65.21739130434781" width="4.3478260869565215" height="4.3478260869565215" style="fill:#222222;shape-rendering:crispEdges;"/>
<rect x="91.30434782608695" y="65.21739130434781" width="4.3478260869565215" height="4.3478260869565215" style="fill:#222222;shape-rendering:crispEdges;"/>
<rect x="4.3478260869565215" y="69.56521739130434" width="4.3478260869565215" height="4.3478260869565215" style="fill:#222222;shape-rendering:crispEdges;"/>
<rect x="30.43478260869565" y="69.56521739130434" width="4.3478260869565215" height="4.3478260869565215" style="fill:#222222;shape-rendering:crispEdges;"/>
<rect x="39.130434782608695" y="69.56521739130434" width="4.3478260869565215" height="4.3478260869565215" style="fill:#222222;shape-rendering:crispEdges;"/>
<rect x="43.47826086956522" y="69.56521739130434" width="4.3478260869565215" height="4.3478260869565215" style="fill:#222222;shape-rendering:crispEdges;"/>
<rect x="47.82608695652174" y="69.56521739130434" width="4.3478260869565215" height="4.3478260869565215" style="fill:#222222;shape-rendering:crispEdges;"/>
<rect x="52.17391304347826" y="69.56521739130434" width="4.3478260869565215" height="4.3478260869565215" style="fill:#222222;shape-rendering:crispEdges;"/>
<rect x="56.52173913043478" y="69.56521739130434" width="4.3478260869565215" height="4.3478260869565215" style="fill:#222222;shape-rendering:crispEdges;"/>
<rect x="60.869565217391305" y="69.56521739130434" width="4.3478260869565215" height="4.3478260869565215" style="fill:#222222;shape-rendering:crispEdges;"/>
<rect x="65.21739130434781" y="69.56521739130434" width="4.3478260869565215" height="4.3478260869565215" style="fill:#222222;shape-rendering:crispEdges;"/>
<rect x="69.56521739130434" y="69.56521739130434" width="4.3478260869565215" height="4.3478260869565215" style="fill:#222222;shape-rendering:crispEdges;"/>
<rect x="73.91304347826086" y="69.56521739130434" width="4.3478260869565215" height="4.3478260869565215" style="fill:#222222;shape-rendering:crispEdges;"/>
<rect x="78.26086956521738" y="69.56521739130434" width="4.3478260869565215" height="4.3478260869565215" style="fill:#222222;shape-rendering:crispEdges;"/>
<rect x="82.6086956521739" y="69.56521739130434" width="4.3478260869565215" height="4.3478260869565215" style="fill:#222222;shape-rendering:crispEdges;"/>
<rect x="91.30434782608695" y="69.56521739130434" width="4.3478260869565215" height="4.3478260869565215" style="fill:#222222;shape-rendering:crispEdges;"/>
<rect x="4.3478260869565215" y="73.91304347826086" width="4.3478260869565215" height="4.3478260869565215" style="fill:#222222;shape-rendering:crispEdges;"/>
<rect x="13.043478260869565" y="73.91304347826086" width="4.3478260869565215" height="4.3478260869565215" style="fill:#222222;shape-rendering:crispEdges;"/>
<rect x="17.391304347826086" y="73.91304347826086" width="4.3478260869565215" height="4.3478260869565215" style="fill:#222222;shape-rendering:crispEdges;"/>
<rect x="21.73913043478261" y="73.91304347826086" width="4.3478260869565215" height="4.3478260869565215" style="fill:#222222;shape-rendering:crispEdges;"/>
<rect x="30.43478260869565" y="73.91304347826086" width="4.3478260869565215" height="4.3478260869565215" style="fill:#222222;shape-rendering:crispEdges;"/>
<rect x="43.47826086956522" y="73.91304347826086" width="4.3478260869565215" height="4.3478260869565215" style="fill:#222222;shape-rendering:crispEdges;"/>
<rect x="56.52173913043478" y="73.91304347826086" width="4.3478260869565215" height="4.3478260869565215" style="fill:#222222;shape-rendering:crispEdges;"/>
<rect x="65.21739130434781" y="73.91304347826086" width="4.3478260869565215" height="4.3478260869565215" style="fill:#222222;shape-rendering:crispEdges;"/>
<rect x="69.56521739130434" y="73.91304347826086" width="4.3478260869565215" height="4.3478260869565215" style="fill:#222222;shape-rendering:crispEdges;"/>
<rect x="78.26086956521738" y="73.91304347826086" width="4.3478260869565215" height="4.3478260869565215" style="fill:#222222;shape-rendering:crispEdges;"/>
<rect x="82.6086956521739" y="73.91304347826086" width="4.3478260869565215" height="4.3478260869565215" style="fill:#222222;shape-rendering:crispEdges;"/>
<rect x="91.30434782608695" y="73.91304347826086" width="4.3478260869565215" height="4.3478260869565215" style="fill:#222222;shape-rendering:crispEdges;"/>
<rect x="4.3478260869565215" y="78.26086956521738" width="4.3478260869565215" height="4.3478260869565215" style="fill:#222222;shape-rendering:crispEdges;"/>
<rect x="13.043478260869565" y="78.26086956521738" width="4.3478260869565215" height="4.3478260869565215" style="fill:#222222;shape-rendering:crispEdges;"/>
<rect x="17.391304347826086" y="78.26086956521738" width="4.3478260869565215" height="4.3478260869565215" style="fill:#222222;shape-rendering:crispEdges;"/>
<rect x="21.73913043478261" y="78.26086956521738" width="4.3478260869565215" height="4.3478260869565215" style="fill:#222222;shape-rendering:crispEdges;"/>
<rect x="30.43478260869565" y="78.26086956521738" width="4.3478260869565215" height="4.3478260869565215" style="fill:#222222;shape-rendering:crispEdges;"/>
<rect x="43.47826086956522" y="78.26086956521738" width="4.3478260869565215" height="4.3478260869565215" style="fill:#222222;shape-rendering:crispEdges;"/>
<rect x="52.17391304347826" y="78.26086956521738" width="4.3478260869565215" height="4.3478260869565215" style="fill:#222222;shape-rendering:crispEdges;"/>
<rect x="60.869565217391305" y="78.26086956521738" width="4.3478260869565215" height="4.3478260869565215" style="fill:#222222;shape-rendering:crispEdges;"/>
<rect x="65.21739130434781" y="78.26086956521738" width="4.3478260869565215" height="4.3478260869565215" style="fill:#222222;shape-rendering:crispEdges;"/>
<rect x="82.6086956521739" y="78.26086956521738" width="4.3478260869565215" height="4.3478260869565215" style="fill:#222222;shape-rendering:crispEdges;"/>
<rect x="91.30434782608695" y="78.26086956521738" width="4.3478260869565215" height="4.3478260869565215" style="fill:#222222;shape-rendering:crispEdges;"/>
<rect x="4.3478260869565215" y="82.6086956521739" width="4.3478260869565215" height="4.3478260869565215" style="fill:#222222;shape-rendering:crispEdges;"/>
<rect x="13.043478260869565" y="82.6086956521739" width="4.3478260869565215" height="4.3478260869565215" style="fill:#222222;shape-rendering:crispEdges;"/>
<rect x="17.391304347826086" y="82.6086956521739" width="4.3478260869565215" height="4.3478260869565215" style="fill:#222222;shape-rendering:crispEdges;"/>
<rect x="21.73913043478261" y="82.6086956521739" width="4.3478260869565215" height="4.3478260869565215" style="fill:#222222;shape-rendering:crispEdges;"/>
<rect x="30.43478260869565" y="82.6086956521739" width="4.3478260869565215" height="4.3478260869565215" style="fill:#222222;shape-rendering:crispEdges;"/>
<rect x="60.869565217391305" y="82.6086956521739" width="4.3478260869565215" height="4.3478260869565215" style="fill:#222222;shape-rendering:crispEdges;"/>
<rect x="65.21739130434781" y="82.6086956521739" width="4.3478260869565215" height="4.3478260869565215" style="fill:#222222;shape-rendering:crispEdges;"/>
<rect x="78.26086956521738" y="82.6086956521739" width="4.3478260869565215" height="4.3478260869565215" style="fill:#222222;shape-rendering:crispEdges;"/>
<rect x="4.3478260869565215" y="86.95652173913042" width="4.3478260869565215" height="4.3478260869565215" style="fill:#222222;shape-rendering:crispEdges;"/>
<rect x="30.43478260869565" y="86.95652173913042" width="4.3478260869565215" height="4.3478260869565215" style="fill:#222222;shape-rendering:crispEdges;"/>
<rect x="43.47826086956522" y="86.95652173913042" width="4.3478260869565215" height="4.3478260869565215" style="fill:#222222;shape-rendering:crispEdges;"/>
<rect x="52.17391304347826" y="86.95652173913042" width="4.3478260869565215" height="4.3478260869565215" style="fill:#222222;shape-rendering:crispEdges;"/>
<rect x="65.21739130434781" y="86.95652173913042" width="4.3478260869565215" height="4.3478260869565215" style="fill:#222222;shape-rendering:crispEdges;"/>
<rect x="73.91304347826086" y="86.95652173913042" width="4.3478260869565215" height="4.3478260869565215" style="fill:#222222;shape-rendering:crispEdges;"/>
<rect x="78.26086956521738" y="86.95652173913042" width="4.3478260869565215" height="4.3478260869565215" style="fill:#222222;shape-rendering:crispEdges;"/>
<rect x="91.30434782608695" y="86.95652173913042" width="4.3478260869565215" height="4.3478260869565215" style="fill:#222222;shape-rendering:crispEdges;"/>
<rect x="4.3478260869565215" y="91.30434782608695" width="4.3478260869565215" height="4.3478260869565215" style="fill:#222222;shape-rendering:crispEdges;"/>
<rect x="8.695652173913043" y="91.30434782608695" width="4.3478260869565215" height="4.3478260869565215" style="fill:#222222;shape-rendering:crispEdges;"/>
<rect x="13.043478260869565" y="91.30434782608695" width="4.3478260869565215" height="4.3478260869565215" style="fill:#222222;shape-rendering:crispEdges;"/>
<rect x="17.391304347826086" y="91.30434782608695" width="4.3478260869565215" height="4.3478260869565215" style="fill:#222222;shape-rendering:crispEdges;"/>
<rect x="21.73913043478261" y="91.30434782608695" width="4.3478260869565215" height="4.3478260869565215" style="fill:#222222;shape-rendering:crispEdges;"/>
<rect x="26.086956521739133" y="91.30434782608695" width="4.3478260869565215" height="4.3478260869565215" style="fill:#222222;shape-rendering:crispEdges;"/>
<rect x="30.43478260869565" y="91.30434782608695" width="4.3478260869565215" height="4.3478260869565215" style="fill:#222222;shape-rendering:crispEdges;"/>
<rect x="43.47826086956522" y="91.30434782608695" width="4.3478260869565215" height="4.3478260869565215" style="fill:#222222;shape-rendering:crispEdges;"/>
<rect x="47.82608695652174" y="91.30434782608695" width="4.3478260869565215" height="4.3478260869565215" style="fill:#222222;shape-rendering:crispEdges;"/>
<rect x="60.869565217391305" y="91.30434782608695" width="4.3478260869565215" height="4.3478260869565215" style="fill:#222222;shape-rendering:crispEdges;"/>
<rect x="69.56521739130434" y="91.30434782608695" width="4.3478260869565215" height="4.3478260869565215" style="fill:#222222;shape-rendering:crispEdges;"/>
<rect x="78.26086956521738" y="91.30434782608695" width="4.3478260869565215" height="4.3478260869565215" style="fill:#222222;shape-rendering:crispEdges;"/>
<rect x="82.6086956521739" y="91.30434782608695" width="4.3478260869565215" height="4.3478260869565215" style="fill:#222222;shape-rendering:crispEdges;"/>
</svg>