<?xml version="1.0" standalone="yes"?>
<svg xmlns="http://www.w3.org/2000/svg" version="1.1" width="100" height="100">
<rect x="0" y="0" width="100" height="100" style="fill:transparent;shape-rendering:crispEdges;"/>
<rect x="3.7037037037037037" y="3.7037037037037037" width="3.7037037037037037" height="3.7037037037037037" style="fill:#222222;shape-rendering:crispEdges;"/>
<rect x="7.407407407407407" y="3.7037037037037037" width="3.7037037037037037" height="3.7037037037037037" style="fill:#222222;shape-rendering:crispEdges;"/>
<rect x="11.11111111111111" y="3.7037037037037037" width="3.7037037037037037" height="3.7037037037037037" style="fill:#222222;shape-rendering:crispEdges;"/>
<rect x="14.814814814814815" y="3.7037037037037037" width="3.7037037037037037" height="3.7037037037037037" style="fill:#222222;shape-rendering:crispEdges;"/>
<rect x="18.51851851851852" y="3.7037037037037037" width="3.7037037037037037" height="3.7037037037037037" style="fill:#222222;shape-rendering:crispEdges;"/>
<rect x="22.22222222222222" y="3.7037037037037037" width="3.7037037037037037" height="3.7037037037037037" style="fill:#222222;shape-rendering:crispEdges;"/>
<rect x="25.925925925925924" y="3.7037037037037037" width="3.7037037037037037" height="3.7037037037037037" style="fill:#222222;shape-rendering:crispEdges;"/>
<rect x="33.333333333333336" y="3.7037037037037037" width="3.7037037037037037" height="3.7037037037037037" style="fill:#222222;shape-rendering:crispEdges;"/>
<rect x="40.74074074074074" y="3.7037037037037037" width="3.7037037037037037" height="3.7037037037037037" style="fill:#222222;shape-rendering:crispEdges;"/>
<rect x="59.25925925925926" y="3.7037037037037037" width="3.7037037037037037" height="3.7037037037037037" style="fill:#222222;shape-rendering:crispEdges;"/>
<rect x="70.37037037037038" y="3.7037037037037037" width="3.7037037037037037" height="3.7037037037037037" style="fill:#222222;shape-rendering:crispEdges;"/>
<rect x="74.07407407407408" y="3.7037037037037037" width="3.7037037037037037" height="3.7037037037037037" style="fill:#222222;shape-rendering:crispEdges;"/>
<rect x="77.77777777777779" y="3.7037037037037037" width="3.7037037037037037" height="3.7037037037037037" style="fill:#222222;shape-rendering:crispEdges;"/>
<rect x="81.48148148148148" y="3.7037037037037037" width="3.7037037037037037" height="3.7037037037037037" style="fill:#222222;shape-rendering:crispEdges;"/>
<rect x="85.18518518518519" y="3.7037037037037037" width="3.7037037037037037" height="3.7037037037037037" style="fill:#222222;shape-rendering:crispEdges;"/>
<rect x="88.8888888888889" y="3.7037037037037037" width="3.7037037037037037" height="3.7037037037037037" style="fill:#222222;shape-rendering:crispEdges;"/>
<rect x="92.5925925925926" y="3.7037037037037037" width="3.7037037037037037" height="3.7037037037037037" style="fill:#222222;shape-rendering:crispEdges;"/>
<rect x="3.7037037037037037" y="7.407407407407407" width="3.7037037037037037" height="3.7037037037037037" style="fill:#222222;shape-rendering:crispEdges;"/>
<rect x="25.925925925925924" y="7.407407407407407" width="3.7037037037037037" height="3.7037037037037037" style="fill:#222222;shape-rendering:crispEdges;"/>
<rect x="40.74074074074074" y="7.407407407407407" width="3.7037037037037037" height="3.7037037037037037" style="fill:#222222;shape-rendering:crispEdges;"/>
<rect x="44.44444444444444" y="7.407407407407407" width="3.7037037037037037" height="3.7037037037037037" style="fill:#222222;shape-rendering:crispEdges;"/>
<rect x="51.85185185185185" y="7.407407407407407" width="3.7037037037037037" height="3.7037037037037037" style="fill:#222222;shape-rendering:crispEdges;"/>
<rect x="55.55555555555556" y="7.407407407407407" width="3.7037037037037037" height="3.7037037037037037" style="fill:#222222;shape-rendering:crispEdges;"/>
<rect x="70.37037037037038" y="7.407407407407407" width="3.7037037037037037" height="3.7037037037037037" style="fill:#222222;shape-rendering:crispEdges;"/>
<rect x="92.5925925925926" y="7.407407407407407" width="3.7037037037037037" height="3.7037037037037037" style="fill:#222222;shape-rendering:crispEdges;"/>
<rect x="3.7037037037037037" y="11.11111111111111" width="3.7037037037037037" height="3.7037037037037037" style="fill:#222222;shape-rendering:crispEdges;"/>
<rect x="11.11111111111111" y="11.11111111111111" width="3.7037037037037037" height="3.7037037037037037" style="fill:#222222;shape-rendering:crispEdges;"/>
<rect x="14.814814814814815" y="11.11111111111111" width="3.7037037037037037" height="3.7037037037037037" style="fill:#222222;shape-rendering:crispEdges;"/>
<rect x="18.51851851851852" y="11.11111111111111" width="3.7037037037037037" height="3.7037037037037037" style="fill:#222222;shape-rendering:crispEdges;"/>
<rect x="25.925925925925924" y="11.11111111111111" width="3.7037037037037037" height="3.7037037037037037" style="fill:#222222;shape-rendering:crispEdges;"/>
<rect x="33.333333333333336" y="11.11111111111111" width="3.7037037037037037" height="3.7037037037037037" style="fill:#222222;shape-rendering:crispEdges;"/>
<rect x="48.148148148148145" y="11.11111111111111" width="3.7037037037037037" height="3.7037037037037037" style="fill:#222222;shape-rendering:crispEdges;"/>
<rect x="51.85185185185185" y="11.11111111111111" width="3.7037037037037037" height="3.7037037037037037" style="fill:#222222;shape-rendering:crispEdges;"/>
<rect x="70.37037037037038" y="11.11111111111111" width="3.7037037037037037" height="3.7037037037037037" style="fill:#222222;shape-rendering:crispEdges;"/>
<rect x="77.77777777777779" y="11.11111111111111" width="3.7037037037037037" height="3.7037037037037037" style="fill:#222222;shape-rendering:crispEdges;"/>
<rect x="81.48148148148148" y="11.11111111111111" width="3.7037037037037037" height="3.7037037037037037" style="fill:#222222;shape-rendering:crispEdges;"/>
<rect x="85.18518518518519" y="11.11111111111111" width="3.7037037037037037" height="3.7037037037037037" style="fill:#222222;shape-rendering:crispEdges;"/>
<rect x="92.5925925925926" y="11.11111111111111" width="3.7037037037037037" height="3.7037037037037037" style="fill:#222222;shape-rendering:crispEdges;"/>
<rect x="3.7037037037037037" y="14.814814814814815" width="3.7037037037037037" height="3.7037037037037037" style="fill:#222222;shape-rendering:crispEdges;"/>
<rect x="11.11111111111111" y="14.814814814814815" width="3.7037037037037037" height="3.7037037037037037" style="fill:#222222;shape-rendering:crispEdges;"/>
<rect x="14.814814814814815" y="14.814814814814815" width="3.7037037037037037" height="3.7037037037037037" style="fill:#222222;shape-rendering:crispEdges;"/>
<rect x="18.51851851851852" y="14.814814814814815" width="3.7037037037037037" height="3.7037037037037037" style="fill:#222222;shape-rendering:crispEdges;"/>
<rect x="25.925925925925924" y="14.814814814814815" width="3.7037037037037037" height="3.7037037037037037" style="fill:#222222;shape-rendering:crispEdges;"/>
<rect x="33.333333333333336" y="14.814814814814815" width="3.7037037037037037" height="3.7037037037037037" style="fill:#222222;shape-rendering:crispEdges;"/>
<rect x="40.74074074074074" y="14.814814814814815" width="3.7037037037037037" height="3.7037037037037037" style="fill:#222222;shape-rendering:crispEdges;"/>
<rect x="44.44444444444444" y="14.814814814814815" width="3.7037037037037037" height="3.7037037037037037" style="fill:#222222;shape-rendering:crispEdges;"/>
<rect x="48.148148148148145" y="14.814814814814815" width="3.7037037037037037" height="3.7037037037037037" style="fill:#222222;shape-rendering:crispEdges;"/>
<rect x="59.25925925925926" y="14.814814814814815" width="3.7037037037037037" height="3.7037037037037037" style="fill:#222222;shape-rendering:crispEdges;"/>
<rect x="62.96296296296296" y="14.814814814814815" width="3.7037037037037037" height="3.7037037037037037" style="fill:#222222;shape-rendering:crispEdges;"/>
<rect x="70.37037037037038" y="14.814814814814815" width="3.7037037037037037" height="3.7037037037037037" style="fill:#222222;shape-rendering:crispEdges;"/>
<rect x="77.77777777777779" y="14.814814814814815" width="3.7037037037037037" height="3.7037037037037037" style="fill:#222222;shape-rendering:crispEdges;"/>
<rect x="81.48148148148148" y="14.814814814814815" width="3.7037037037037037" height="3.7037037037037037" style="fill:#222222;shape-rendering:crispEdges;"/>
<rect x="85.18518518518519" y="14.814814814814815" width="3.7037037037037037" height="3.7037037037037037" style="fill:#222222;shape-rendering:crispEdges;"/>
<rect x="92.5925925925926" y="14.814814814814815" width="3.7037037037037037" height="3.7037037037037037" style="fill:#222222;shape-rendering:crispEdges;"/>
<rect x="3.7037037037037037" y="18.51851851851852" width="3.7037037037037037" height="3.7037037037037037" style="fill:#222222;shape-rendering:crispEdges;"/>
<rect x="11.11111111111111" y="18.51851851851852" width="3.7037037037037037" height="3.7037037037037037" style="fill:#222222;shape-rendering:crispEdges;"/>
<rect x="14.814814814814815" y="18.51851851851852" width="3.7037037037037037" height="3.7037037037037037" style="fill:#222222;shape-rendering:crispEdges;"/>
<rect x="18.51851851851852" y="18.51851851851852" width="3.7037037037037037" height="3.7037037037037037" style="fill:#222222;shape-rendering:crispEdges;"/>
<rect x="25.925925925925924" y="18.51851851851852" width="3.7037037037037037" height="3.7037037037037037" style="fill:#222222;shape-rendering:crispEdges;"/>
<rect x="37.03703703703704" y="18.51851851851852" width="3.7037037037037037" height="3.7037037037037037" style="fill:#222222;shape-rendering:crispEdges;"/>
<rect x="40.74074074074074" y="18.51851851851852" width="3.7037037037037037" height="3.7037037037037037" style="fill:#222222;shape-rendering:crispEdges;"/>
<rect x="51.85185185185185" y="18.51851851851852" width="3.7037037037037037" height="3.7037037037037037" style="fill:#222222;shape-rendering:crispEdges;"/>
<rect x="55.55555555555556" y="18.51851851851852" width="3.7037037037037037" height="3.7037037037037037" style="fill:#222222;shape-rendering:crispEdges;"/>
<rect x="70.37037037037038" y="18.51851851851852" width="3.7037037037037037" height="3.7037037037037037" style="fill:#222222;shape-rendering:crispEdges;"/>
<rect x="77.77777777777779" y="18.51851851851852" width="3.7037037037037037" height="3.7037037037037037" style="fill:#222222;shape-rendering:crispEdges;"/>
<rect x="81.48148148148148" y="18.51851851851852" width="3.7037037037037037" height="3.7037037037037037" style="fill:#222222;shape-rendering:crispEdges;"/>
<rect x="85.18518518518519" y="18.51851851851852" width="3.7037037037037037" height="3.7037037037037037" style="fill:#222222;shape-rendering:crispEdges;"/>
<rect x="92.5925925925926" y="18.51851851851852" width="3.7037037037037037" height="3.7037037037037037" style="fill:#222222;shape-rendering:crispEdges;"/>
<rect x="3.7037037037037037" y="22.22222222222222" width="3.7037037037037037" height="3.7037037037037037" style="fill:#222222;shape-rendering:crispEdges;"/>
<rect x="25.925925925925924" y="22.22222222222222" width="3.7037037037037037" height="3.7037037037037037" style="fill:#222222;shape-rendering:crispEdges;"/>
<rect x="33.333333333333336" y="22.22222222222222" width="3.7037037037037037" height="3.7037037037037037" style="fill:#222222;shape-rendering:crispEdges;"/>
<rect x="44.44444444444444" y="22.22222222222222" width="3.7037037037037037" height="3.7037037037037037" style="fill:#222222;shape-rendering:crispEdges;"/>
<rect x="48.148148148148145" y="22.22222222222222" width="3.7037037037037037" height="3.7037037037037037" style="fill:#222222;shape-rendering:crispEdges;"/>
<rect x="59.25925925925926" y="22.22222222222222" width="3.7037037037037037" height="3.7037037037037037" style="fill:#222222;shape-rendering:crispEdges;"/>
<rect x="62.96296296296296" y="22.22222222222222" width="3.7037037037037037" height="3.7037037037037037" style="fill:#222222;shape-rendering:crispEdges;"/>
<rect x="70.37037037037038" y="22.22222222222222" width="3.7037037037037037" height="3.7037037037037037" style="fill:#222222;shape-rendering:crispEdges;"/>
<rect x="92.5925925925926" y="22.22222222222222" width="3.7037037037037037" height="3.7037037037037037" style="fill:#222222;shape-rendering:crispEdges;"/>
<rect x="3.7037037037037037" y="25.925925925925924" width="3.7037037037037037" height="3.7037037037037037" style="fill:#222222;shape-rendering:crispEdges;"/>
<rect x="7.407407407407407" y="25.925925925925924" width="3.7037037037037037" height="3.7037037037037037" style="fill:#222222;shape-rendering:crispEdges;"/>
<rect x="11.11111111111111" y="25.925925925925924" width="3.7037037037037037" height="3.7037037037037037" style="fill:#222222;shape-rendering:crispEdges;"/>
<rect x="14.814814814814815" y="25.925925925925924" width="3.7037037037037037" height="3.7037037037037037" style="fill:#222222;shape-rendering:crispEdges;"/>
<rect x="18.51851851851852" y="25.925925925925924" width="3.7037037037037037" height="3.7037037037037037" style="fill:#222222;shape-rendering:crispEdges;"/>
<rect x="22.22222222222222" y="25.925925925925924" width="3.7037037037037037" height="3.7037037037037037" style="fill:#222222;shape-rendering:crispEdges;"/>
<rect x="25.925925925925924" y="25.925925925925924" width="3.7037037037037037" height="3.7037037037037037" style="fill:#222222;shape-rendering:crispEdges;"/>
<rect x="33.333333333333336" y="25.925925925925924" width="3.7037037037037037" height="3.7037037037037037" style="fill:#222222;shape-rendering:crispEdges;"/>
<rect x="40.74074074074074" y="25.925925925925924" width="3.7037037037037037" height="3.7037037037037037" style="fill:#222222;shape-rendering:crispEdges;"/>
<rect x="48.148148148148145" y="25.925925925925924" width="3.7037037037037037" height="3.7037037037037037" style="fill:#222222;shape-rendering:crispEdges;"/>
<rect x="55.55555555555556" y="25.925925925925924" width="3.7037037037037037" height="3.7037037037037037" style="fill:#222222;shape-rendering:crispEdges;"/>
<rect x="62.96296296296296" y="25.925925925925924" width="3.7037037037037037" height="3.7037037037037037" style="fill:#222222;shape-rendering:crispEdges;"/>
<rect x="70.37037037037038" y="25.925925925925924" width="3.7037037037037037" height="3.7037037037037037" style="fill:#222222;shape-rendering:crispEdges;"/>
<rect x="74.07407407407408" y="25.925925925925924" width="3.7037037037037037" height="3.7037037037037037" style="fill:#222222;shape-rendering:crispEdges;"/>
<rect x="77.77777777777779" y="25.925925925925924" width="3.7037037037037037" height="3.7037037037037037" style="fill:#222222;shape-rendering:crispEdges;"/>
<rect x="81.48148148148148" y="25.925925925925924" width="3.7037037037037037" height="3.7037037037037037" style="fill:#222222;shape-rendering:crispEdges;"/>
<rect x="85.18518518518519" y="25.925925925925924" width="3.7037037037037037" height="3.7037037037037037" style="fill:#222222;shape-rendering:crispEdges;"/>
<rect x="88.8888888888889" y="25.925925925925924" width="3.7037037037037037" height="3.7037037037037037" style="fill:#222222;shape-rendering:crispEdges;"/>
<rect x="92.5925925925926" y="25.925925925925924" width="3.7037037037037037" height="3.7037037037037037" style="fill:#222222;shape-rendering:crispEdges;"/>
<rect x="33.333333333333336" y="29.62962962962963" width="3.7037037037037037" height="3.7037037037037037" style="fill:#222222;shape-rendering:crispEdges;"/>
<rect x="44.44444444444444" y="29.62962962962963" width="3.7037037037037037" height="3.7037037037037037" style="fill:#222222;shape-rendering:crispEdges;"/>
<rect x="48.148148148148145" y="29.62962962962963" width="3.7037037037037037" height="3.7037037037037037" style="fill:#222222;shape-rendering:crispEdges;"/>
<rect x="51.85185185185185" y="29.62962962962963" width="3.7037037037037037" height="3.7037037037037037" style="fill:#222222;shape-rendering:crispEdges;"/>
<rect x="59.25925925925926" y="29.62962962962963" width="3.7037037037037037" height="3.7037037037037037" style="fill:#222222;shape-rendering:crispEdges;"/>
<rect x="62.96296296296296" y="29.62962962962963" width="3.7037037037037037" height="3.7037037037037037" style="fill:#222222;shape-rendering:crispEdges;"/>
<rect x="3.7037037037037037" y="33.333333333333336" width="3.7037037037037037" height="3.7037037037037037" style="fill:#222222;shape-rendering:crispEdges;"/>
<rect x="7.407407407407407" y="33.333333333333336" width="3.7037037037037037" height="3.7037037037037037" style="fill:#222222;shape-rendering:crispEdges;"/>
<rect x="14.814814814814815" y="33.333333333333336" width="3.7037037037037037" height="3.7037037037037037" style="fill:#222222;shape-rendering:crispEdges;"/>
<rect x="25.925925925925924" y="33.333333333333336" width="3.7037037037037037" height="3.7037037037037037" style="fill:#222222;shape-rendering:crispEdges;"/>
<rect x="29.62962962962963" y="33.333333333333336" width="3.7037037037037037" height="3.7037037037037037" style="fill:#222222;shape-rendering:crispEdges;"/>
<rect x="40.74074074074074" y="33.333333333333336" width="3.7037037037037037" height="3.7037037037037037" style="fill:#222222;shape-rendering:crispEdges;"/>
<rect x="59.25925925925926" y="33.333333333333336" width="3.7037037037037037" height="3.7037037037037037" style="fill:#222222;shape-rendering:crispEdges;"/>
<rect x="62.96296296296296" y="33.333333333333336" width="3.7037037037037037" height="3.7037037037037037" style="fill:#222222;shape-rendering:crispEdges;"/>
<rect x="66.66666666666667" y="33.333333333333336" width="3.7037037037037037" height="3.7037037037037037" style="fill:#222222;shape-rendering:crispEdges;"/>
<rect x="70.37037037037038" y="33.333333333333336" width="3.7037037037037037" height="3.7037037037037037" style="fill:#222222;shape-rendering:crispEdges;"/>
<rect x="74.07407407407408" y="33.333333333333336" width="3.7037037037037037" height="3.7037037037037037" style="fill:#222222;shape-rendering:crispEdges;"/>
<rect x="81.48148148148148" y="33.333333333333336" width="3.7037037037037037" height="3.7037037037037037" style="fill:#222222;shape-rendering:crispEdges;"/>
<rect x="85.18518518518519" y="33.333333333333336" width="3.7037037037037037" height="3.7037037037037037" style="fill:#222222;shape-rendering:crispEdges;"/>
<rect x="92.5925925925926" y="33.333333333333336" width="3.7037037037037037" height="3.7037037037037037" style="fill:#222222;shape-rendering:crispEdges;"/>
<rect x="7.407407407407407" y="37.03703703703704" width="3.7037037037037037" height="3.7037037037037037" style="fill:#222222;shape-rendering:crispEdges;"/>
<rect x="22.22222222222222" y="37.03703703703704" width="3.7037037037037037" height="3.7037037037037037" style="fill:#222222;shape-rendering:crispEdges;"/>
<rect x="40.74074074074074" y="37.03703703703704" width="3.7037037037037037" height="3.7037037037037037" style="fill:#222222;shape-rendering:crispEdges;"/>
<rect x="48.148148148148145" y="37.03703703703704" width="3.7037037037037037" height="3.7037037037037037" style="fill:#222222;shape-rendering:crispEdges;"/>
<rect x="51.85185185185185" y="37.03703703703704" width="3.7037037037037037" height="3.7037037037037037" style="fill:#222222;shape-rendering:crispEdges;"/>
<rect x="59.25925925925926" y="37.03703703703704" width="3.7037037037037037" height="3.7037037037037037" style="fill:#222222;shape-rendering:crispEdges;"/>
<rect x="66.66666666666667" y="37.03703703703704" width="3.7037037037037037" height="3.7037037037037037" style="fill:#222222;shape-rendering:crispEdges;"/>
<rect x="70.37037037037038" y="37.03703703703704" width="3.7037037037037037" height="3.7037037037037037" style="fill:#222222;shape-rendering:crispEdges;"/>
<rect x="77.77777777777779" y="37.03703703703704" width="3.7037037037037037" height="3.7037037037037037" style="fill:#222222;shape-rendering:crispEdges;"/>
<rect x="81.48148148148148" y="37.03703703703704" width="3.7037037037037037" height="3.7037037037037037" style="fill:#222222;shape-rendering:crispEdges;"/>
<rect x="85.18518518518519" y="37.03703703703704" width="3.7037037037037037" height="3.7037037037037037" style="fill:#222222;shape-rendering:crispEdges;"/>
<rect x="88.8888888888889" y="37.03703703703704" width="3.7037037037037037" height="3.7037037037037037" style="fill:#222222;shape-rendering:crispEdges;"/>
<rect x="92.5925925925926" y="37.03703703703704" width="3.7037037037037037" height="3.7037037037037037" style="fill:#222222;shape-rendering:crispEdges;"/>
<rect x="3.7037037037037037" y="40.74074074074074" width="3.7037037037037037" height="3.7037037037037037" style="fill:#222222;shape-rendering:crispEdges;"/>
<rect x="7.407407407407407" y="40.74074074074074" width="3.7037037037037037" height="3.7037037037037037" style="fill:#222222;shape-rendering:crispEdges;"/>
<rect x="11.11111111111111" y="40.74074074074074" width="3.7037037037037037" height="3.7037037037037037" style="fill:#222222;shape-rendering:crispEdges;"/>
<rect x="18.51851851851852" y="40.74074074074074" width="3.7037037037037037" height="3.7037037037037037" style="fill:#222222;shape-rendering:crispEdges;"/>
<rect x="22.22222222222222" y="40.74074074074074" width="3.7037037037037037" height="3.7037037037037037" style="fill:#222222;shape-rendering:crispEdges;"/>
<rect x="25.925925925925924" y="40.74074074074074" width="3.7037037037037037" height="3.7037037037037037" style="fill:#222222;shape-rendering:crispEdges;"/>
<rect x="37.03703703703704" y="40.74074074074074" width="3.7037037037037037" height="3.7037037037037037" style="fill:#222222;shape-rendering:crispEdges;"/>
<rect x="59.25925925925926" y="40.74074074074074" width="3.7037037037037037" height="3.7037037037037037" style="fill:#222222;shape-rendering:crispEdges;"/>
<rect x="62.96296296296296" y="40.74074074074074" width="3.7037037037037037" height="3.7037037037037037" style="fill:#222222;shape-rendering:crispEdges;"/>
<rect x="74.07407407407408" y="40.74074074074074" width="3.7037037037037037" height="3.7037037037037037" style="fill:#222222;shape-rendering:crispEdges;"/>
<rect x="77.77777777777779" y="40.74074074074074" width="3.7037037037037037" height="3.7037037037037037" style="fill:#222222;shape-rendering:crispEdges;"/>
<rect x="81.48148148148148" y="40.74074074074074" width="3.7037037037037037" height="3.7037037037037037" style="fill:#222222;shape-rendering:crispEdges;"/>
<rect x="92.5925925925926" y="40.74074074074074" width="3.7037037037037037" height="3.7037037037037037" style="fill:#222222;shape-rendering:crispEdges;"/>
<rect x="3.7037037037037037" y="44.44444444444444" width="3.7037037037037037" height="3.7037037037037037" style="fill:#222222;shape-rendering:crispEdges;"/>
<rect x="11.11111111111111" y="44.44444444444444" width="3.7037037037037037" height="3.7037037037037037" style="fill:#222222;shape-rendering:crispEdges;"/>
<rect x="14.814814814814815" y="44.44444444444444" width="3.7037037037037037" height="3.7037037037037037" style="fill:#222222;shape-rendering:crispEdges;"/>
<rect x="18.51851851851852" y="44.44444444444444" width="3.7037037037037037" height="3.7037037037037037" style="fill:#222222;shape-rendering:crispEdges;"/>
<rect x="29.62962962962963" y="44.44444444444444" width="3.7037037037037037" height="3.7037037037037037" style="fill:#222222;shape-rendering:crispEdges;"/>
<rect x="33.333333333333336" y="44.44444444444444" width="3.7037037037037037" height="3.7037037037037037" style="fill:#222222;shape-rendering:crispEdges;"/>
<rect x="40.74074074074074" y="44.44444444444444" width="3.7037037037037037" height="3.7037037037037037" style="fill:#222222;shape-rendering:crispEdges;"/>
<rect x="51.85185185185185" y="44.44444444444444" width="3.7037037037037037" height="3.7037037037037037" style="fill:#222222;shape-rendering:crispEdges;"/>
<rect x="55.55555555555556" y="44.44444444444444" width="3.7037037037037037" height="3.7037037037037037" style="fill:#222222;shape-rendering:crispEdges;"/>
<rect x="59.25925925925926" y="44.44444444444444" width="3.7037037037037037" height="3.7037037037037037" style="fill:#222222;shape-rendering:crispEdges;"/>
<rect x="74.07407407407408" y="44.44444444444444" width="3.7037037037037037" height="3.7037037037037037" style="fill:#222222;shape-rendering:crispEdges;"/>
<rect x="88.8888888888889" y="44.44444444444444" width="3.7037037037037037" height="3.7037037037037037" style="fill:#222222;shape-rendering:crispEdges;"/>
<rect x="92.5925925925926" y="44.44444444444444" width="3.7037037037037037" height="3.7037037037037037" style="fill:#222222;shape-rendering:crispEdges;"/>
<rect x="11.11111111111111" y="48.148148148148145" width="3.7037037037037037" height="3.7037037037037037" style="fill:#222222;shape-rendering:crispEdges;"/>
<rect x="14.814814814814815" y="48.148148148148145" width="3.7037037037037037" height="3.7037037037037037" style="fill:#222222;shape-rendering:crispEdges;"/>
<rect x="18.51851851851852" y="48.148148148148145" width="3.7037037037037037" height="3.7037037037037037" style="fill:#222222;shape-rendering:crispEdges;"/>
<rect x="22.22222222222222" y="48.148148148148145" width="3.7037037037037037" height="3.7037037037037037" style="fill:#222222;shape-rendering:crispEdges;"/>
<rect x="25.925925925925924" y="48.148148148148145" width="3.7037037037037037" height="3.7037037037037037" style="fill:#222222;shape-rendering:crispEdges;"/>
<rect x="33.333333333333336" y="48.148148148148145" width="3.7037037037037037" height="3.7037037037037037" style="fill:#222222;shape-rendering:crispEdges;"/>
<rect x="48.148148148148145" y="48.148148148148145" width="3.7037037037037037" height="3.7037037037037037" style="fill:#222222;shape-rendering:crispEdges;"/>
<rect x="51.85185185185185" y="48.148148148148145" width="3.7037037037037037" height="3.7037037037037037" style="fill:#222222;shape-rendering:crispEdges;"/>
<rect x="62.96296296296296" y="48.148148148148145" width="3.7037037037037037" height="3.7037037037037037" style="fill:#222222;shape-rendering:crispEdges;"/>
<rect x="88.8888888888889" y="48.148148148148145" width="3.7037037037037037" height="3.7037037037037037" style="fill:#222222;shape-rendering:crispEdges;"/>
<rect x="3.7037037037037037" y="51.85185185185185" width="3.7037037037037037" height="3.7037037037037037" style="fill:#222222;shape-rendering:crispEdges;"/>
<rect x="7.407407407407407" y="51.85185185185185" width="3.7037037037037037" height="3.7037037037037037" style="fill:#222222;shape-rendering:crispEdges;"/>
<rect x="22.22222222222222" y="51.85185185185185" width="3.7037037037037037" height="3.7037037037037037" style="fill:#222222;shape-rendering:crispEdges;"/>
<rect x="33.333333333333336" y="51.85185185185185" width="3.7037037037037037" height="3.7037037037037037" style="fill:#222222;shape-rendering:crispEdges;"/>
<rect x="37.03703703703704" y="51.85185185185185" width="3.7037037037037037" height="3.7037037037037037" style="fill:#222222;shape-rendering:crispEdges;"/>
<rect x="40.74074074074074" y="51.85185185185185" width="3.7037037037037037" height="3.7037037037037037" style="fill:#222222;shape-rendering:crispEdges;"/>
<rect x="55.55555555555556" y="51.85185185185185" width="3.7037037037037037" height="3.7037037037037037" style="fill:#222222;shape-rendering:crispEdges;"/>
<rect x="70.37037037037038" y="51.85185185185185" width="3.7037037037037037" height="3.7037037037037037" style="fill:#222222;shape-rendering:crispEdges;"/>
<rect x="74.07407407407408" y="51.85185185185185" width="3.7037037037037037" height="3.7037037037037037" style="fill:#222222;shape-rendering:crispEdges;"/>
<rect x="77.77777777777779" y="51.85185185185185" width="3.7037037037037037" height="3.7037037037037037" style="fill:#222222;shape-rendering:crispEdges;"/>
<rect x="88.8888888888889" y="51.85185185185185" width="3.7037037037037037" height="3.7037037037037037" style="fill:#222222;shape-rendering:crispEdges;"/>
<rect x="3.7037037037037037" y="55.55555555555556" width="3.7037037037037037" height="3.7037037037037037" style="fill:#222222;shape-rendering:crispEdges;"/>
<rect x="14.814814814814815" y="55.55555555555556" width="3.7037037037037037" height="3.7037037037037037" style="fill:#222222;shape-rendering:crispEdges;"/>
<rect x="18.51851851851852" y="55.55555555555556" width="3.7037037037037037" height="3.7037037037037037" style="fill:#222222;shape-rendering:crispEdges;"/>
<rect x="25.925925925925924" y="55.55555555555556" width="3.7037037037037037" height="3.7037037037037037" style="fill:#222222;shape-rendering:crispEdges;"/>
<rect x="37.03703703703704" y="55.55555555555556" width="3.7037037037037037" height="3.7037037037037037" style="fill:#222222;shape-rendering:crispEdges;"/>
<rect x="48.148148148148145" y="55.55555555555556" width="3.7037037037037037" height="3.7037037037037037" style="fill:#222222;shape-rendering:crispEdges;"/>
<rect x="51.85185185185185" y="55.55555555555556" width="3.7037037037037037" height="3.7037037037037037" style="fill:#222222;shape-rendering:crispEdges;"/>
<rect x="59.25925925925926" y="55.55555555555556" width="3.7037037037037037" height="3.7037037037037037" style="fill:#222222;shape-rendering:crispEdges;"/>
<rect x="62.96296296296296" y="55.55555555555556" width="3.7037037037037037" height="3.7037037037037037" style="fill:#222222;shape-rendering:crispEdges;"/>
<rect x="66.66666666666667" y="55.55555555555556" width="3.7037037037037037" height="3.7037037037037037" style="fill:#222222;shape-rendering:crispEdges;"/>
<rect x="70.37037037037038" y="55.55555555555556" width="3.7037037037037037" height="3.7037037037037037" style="fill:#222222;shape-rendering:crispEdges;"/>
<rect x="74.07407407407408" y="55.55555555555556" width="3.7037037037037037" height="3.7037037037037037" style="fill:#222222;shape-rendering:crispEdges;"/>
<rect x="77.77777777777779" y="55.55555555555556" width="3.7037037037037037" height="3.7037037037037037" style="fill:#222222;shape-rendering:crispEdges;"/>
<rect x="85.18518518518519" y="55.55555555555556" width="3.7037037037037037" height="3.7037037037037037" style="fill:#222222;shape-rendering:crispEdges;"/>
<rect x="88.8888888888889" y="55.55555555555556" width="3.7037037037037037" height="3.7037037037037037" style="fill:#222222;shape-rendering:crispEdges;"/>
<rect x="3.7037037037037037" y="59.25925925925926" width="3.7037037037037037" height="3.7037037037037037" style="fill:#222222;shape-rendering:crispEdges;"/>
<rect x="14.814814814814815" y="59.25925925925926" width="3.7037037037037037" height="3.7037037037037037" style="fill:#222222;shape-rendering:crispEdges;"/>
<rect x="22.22222222222222" y="59.25925925925926" width="3.7037037037037037" height="3.7037037037037037" style="fill:#222222;shape-rendering:crispEdges;"/>
<rect x="29.62962962962963" y="59.25925925925926" width="3.7037037037037037" height="3.7037037037037037" style="fill:#222222;shape-rendering:crispEdges;"/>
<rect x="33.333333333333336" y="59.25925925925926" width="3.7037037037037037" height="3.7037037037037037" style="fill:#222222;shape-rendering:crispEdges;"/>
<rect x="37.03703703703704" y="59.25925925925926" width="3.7037037037037037" height="3.7037037037037037" style="fill:#222222;shape-rendering:crispEdges;"/>
<rect x="48.148148148148145" y="59.25925925925926" width="3.7037037037037037" height="3.7037037037037037" style="fill:#222222;shape-rendering:crispEdges;"/>
<rect x="55.55555555555556" y="59.25925925925926" width="3.7037037037037037" height="3.7037037037037037" style="fill:#222222;shape-rendering:crispEdges;"/>
<rect x="62.96296296296296" y="59.25925925925926" width="3.7037037037037037" height="3.7037037037037037" style="fill:#222222;shape-rendering:crispEdges;"/>
<rect x="70.37037037037038" y="59.25925925925926" width="3.7037037037037037" height="3.7037037037037037" style="fill:#222222;shape-rendering:crispEdges;"/>
<rect x="81.48148148148148" y="59.25925925925926" width="3.7037037037037037" height="3.7037037037037037" style="fill:#222222;shape-rendering:crispEdges;"/>
<rect x="7.407407407407407" y="62.96296296296296" width="3.7037037037037037" height="3.7037037037037037" style="fill:#222222;shape-rendering:crispEdges;"/>
<rect x="11.11111111111111" y="62.96296296296296" width="3.7037037037037037" height="3.7037037037037037" style="fill:#222222;shape-rendering:crispEdges;"/>
<rect x="18.51851851851852" y="62.96296296296296" width="3.7037037037037037" height="3.7037037037037037" style="fill:#222222;shape-rendering:crispEdges;"/>
<rect x="22.22222222222222" y="62.96296296296296" width="3.7037037037037037" height="3.7037037037037037" style="fill:#222222;shape-rendering:crispEdges;"/>
<rect x="25.925925925925924" y="62.96296296296296" width="3.7037037037037037" height="3.7037037037037037" style="fill:#222222;shape-rendering:crispEdges;"/>
<rect x="29.62962962962963" y="62.96296296296296" width="3.7037037037037037" height="3.7037037037037037" style="fill:#222222;shape-rendering:crispEdges;"/>
<rect x="40.74074074074074" y="62.96296296296296" width="3.7037037037037037" height="3.7037037037037037" style="fill:#222222;shape-rendering:crispEdges;"/>
<rect x="44.44444444444444" y="62.96296296296296" width="3.7037037037037037" height="3.7037037037037037" style="fill:#222222;shape-rendering:crispEdges;"/>
<rect x="51.85185185185185" y="62.96296296296296" width="3.7037037037037037" height="3.7037037037037037" style="fill:#222222;shape-rendering:crispEdges;"/>
<rect x="55.55555555555556" y="62.96296296296296" width="3.7037037037037037" height="3.7037037037037037" style="fill:#222222;shape-rendering:crispEdges;"/>
<rect x="59.25925925925926" y="62.96296296296296" width="3.7037037037037037" height="3.7037037037037037" style="fill:#222222;shape-rendering:crispEdges;"/>
<rect x="62.96296296296296" y="62.96296296296296" width="3.7037037037037037" height="3.7037037037037037" style="fill:#222222;shape-rendering:crispEdges;"/>
<rect x="66.66666666666667" y="62.96296296296296" width="3.7037037037037037" height="3.7037037037037037" style="fill:#222222;shape-rendering:crispEdges;"/>
<rect x="70.37037037037038" y="62.96296296296296" width="3.7037037037037037" height="3.7037037037037037" style="fill:#222222;shape-rendering:crispEdges;"/>
<rect x="74.07407407407408" y="62.96296296296296" width="3.7037037037037037" height="3.7037037037037037" style="fill:#222222;shape-rendering:crispEdges;"/>
<rect x="77.77777777777779" y="62.96296296296296" width="3.7037037037037037" height="3.7037037037037037" style="fill:#222222;shape-rendering:crispEdges;"/>
<rect x="81.48148148148148" y="62.96296296296296" width="3.7037037037037037" height="3.7037037037037037" style="fill:#222222;shape-rendering:crispEdges;"/>
<rect x="48.148148148148145" y="66.66666666666667" width="3.7037037037037037" height="3.7037037037037037" style="fill:#222222;shape-rendering:crispEdges;"/>
<rect x="51.85185185185185" y="66.66666666666667" width="3.7037037037037037" height="3.7037037037037037" style="fill:#222222;shape-rendering:crispEdges;"/>
<rect x="55.55555555555556" y="66.66666666666667" width="3.7037037037037037" height="3.7037037037037037" style="fill:#222222;shape-rendering:crispEdges;"/>
<rect x="62.96296296296296" y="66.66666666666667" width="3.7037037037037037" height="3.7037037037037037" style="fill:#222222;shape-rendering:crispEdges;"/>
<rect x="77.77777777777779" y="66.66666666666667" width="3.7037037037037037" height="3.7037037037037037" style="fill:#222222;shape-rendering:crispEdges;"/>
<rect x="81.48148148148148" y="66.66666666666667" width="3.7037037037037037" height="3.7037037037037037" style="fill:#222222;shape-rendering:crispEdges;"/>
<rect x="85.18518518518519" y="66.66666666666667" width="3.7037037037037037" height="3.7037037037037037" style="fill:#222222;shape-rendering:crispEdges;"/>
<rect x="88.8888888888889" y="66.66666666666667" width="3.7037037037037037" height="3.7037037037037037" style="fill:#222222;shape-rendering:crispEdges;"/>
<rect x="92.5925925925926" y="66.66666666666667" width="3.7037037037037037" height="3.7037037037037037" style="fill:#222222;shape-rendering:crispEdges;"/>
<rect x="3.7037037037037037" y="70.37037037037038" width="3.7037037037037037" height="3.7037037037037037" style="fill:#222222;shape-rendering:crispEdges;"/>
<rect x="7.407407407407407" y="70.37037037037038" width="3.7037037037037037" height="3.7037037037037037" style="fill:#222222;shape-rendering:crispEdges;"/>
<rect x="11.11111111111111" y="70.37037037037038" width="3.7037037037037037" height="3.7037037037037037" style="fill:#222222;shape-rendering:crispEdges;"/>
<rect x="14.814814814814815" y="70.37037037037038" width="3.7037037037037037" height="3.7037037037037037" style="fill:#222222;shape-rendering:crispEdges;"/>
<rect x="18.51851851851852" y="70.37037037037038" width="3.7037037037037037" height="3.7037037037037037" style="fill:#222222;shape-rendering:crispEdges;"/>
<rect x="22.22222222222222" y="70.37037037037038" width="3.7037037037037037" height="3.7037037037037037" style="fill:#222222;shape-rendering:crispEdges;"/>
<rect x="25.925925925925924" y="70.37037037037038" width="3.7037037037037037" height="3.7037037037037037" style="fill:#222222;shape-rendering:crispEdges;"/>
<rect x="33.333333333333336" y="70.37037037037038" width="3.7037037037037037" height="3.7037037037037037" style="fill:#222222;shape-rendering:crispEdges;"/>
<rect x="40.74074074074074" y="70.37037037037038" width="3.7037037037037037" height="3.7037037037037037" style="fill:#222222;shape-rendering:crispEdges;"/>
<rect x="44.44444444444444" y="70.37037037037038" width="3.7037037037037037" height="3.7037037037037037" style="fill:#222222;shape-rendering:crispEdges;"/>
<rect x="48.148148148148145" y="70.37037037037038" width="3.7037037037037037" height="3.7037037037037037" style="fill:#222222;shape-rendering:crispEdges;"/>
<rect x="51.85185185185185" y="70.37037037037038" width="3.7037037037037037" height="3.7037037037037037" style="fill:#222222;shape-rendering:crispEdges;"/>
<rect x="62.96296296296296" y="70.37037037037038" width="3.7037037037037037" height="3.7037037037037037" style="fill:#222222;shape-rendering:crispEdges;"/>
<rect x="70.37037037037038" y="70.37037037037038" width="3.7037037037037037" height="3.7037037037037037" style="fill:#222222;shape-rendering:crispEdges;"/>
<rect x="77.77777777777779" y="70.37037037037038" width="3.7037037037037037" height="3.7037037037037037" style="fill:#222222;shape-rendering:crispEdges;"/>
<rect x="81.48148148148148" y="70.37037037037038" width="3.7037037037037037" height="3.7037037037037037" style="fill:#222222;shape-rendering:crispEdges;"/>
<rect x="85.18518518518519" y="70.37037037037038" width="3.7037037037037037" height="3.7037037037037037" style="fill:#222222;shape-rendering:crispEdges;"/>
<rect x="3.7037037037037037" y="74.07407407407408" width="3.7037037037037037" height="3.7037037037037037" style="fill:#222222;shape-rendering:crispEdges;"/>
<rect x="25.925925925925924" y="74.07407407407408" width="3.7037037037037037" height="3.7037037037037037" style="fill:#222222;shape-rendering:crispEdges;"/>
<rect x="37.03703703703704" y="74.07407407407408" width="3.7037037037037037" height="3.7037037037037037" style="fill:#222222;shape-rendering:crispEdges;"/>
<rect x="40.74074074074074" y="74.07407407407408" width="3.7037037037037037" height="3.7037037037037037" style="fill:#222222;shape-rendering:crispEdges;"/>
<rect x="51.85185185185185" y="74.07407407407408" width="3.7037037037037037" height="3.7037037037037037" style="fill:#222222;shape-rendering:crispEdges;"/>
<rect x="59.25925925925926" y="74.07407407407408" width="3.7037037037037037" height="3.7037037037037037" style="fill:#222222;shape-rendering:crispEdges;"/>
<rect x="62.96296296296296" y="74.07407407407408" width="3.7037037037037037" height="3.7037037037037037" style="fill:#222222;shape-rendering:crispEdges;"/>
<rect x="77.77777777777779" y="74.07407407407408" width="3.7037037037037037" height="3.7037037037037037" style="fill:#222222;shape-rendering:crispEdges;"/>
<rect x="85.18518518518519" y="74.07407407407408" width="3.7037037037037037" height="3.7037037037037037" style="fill:#222222;shape-rendering:crispEdges;"/>
<rect x="88.8888888888889" y="74.07407407407408" width="3.7037037037037037" height="3.7037037037037037" style="fill:#222222;shape-rendering:crispEdges;"/>
<rect x="3.7037037037037037" y="77.77777777777779" width="3.7037037037037037" height="3.7037037037037037" style="fill:#222222;shape-rendering:crispEdges;"/>
<rect x="11.11111111111111" y="77.77777777777779" width="3.7037037037037037" height="3.7037037037037037" style="fill:#222222;shape-rendering:crispEdges;"/>
<rect x="14.814814814814815" y="77.77777777777779" width="3.7037037037037037" height="3.7037037037037037" style="fill:#222222;shape-rendering:crispEdges;"/>
<rect x="18.51851851851852" y="77.77777777777779" width="3.7037037037037037" height="3.7037037037037037" style="fill:#222222;shape-rendering:crispEdges;"/>
<rect x="25.925925925925924" y="77.77777777777779" width="3.7037037037037037" height="3.7037037037037037" style="fill:#222222;shape-rendering:crispEdges;"/>
<rect x="48.148148148148145" y="77.77777777777779" width="3.7037037037037037" height="3.7037037037037037" style="fill:#222222;shape-rendering:crispEdges;"/>
<rect x="51.85185185185185" y="77.77777777777779" width="3.7037037037037037" height="3.7037037037037037" style="fill:#222222;shape-rendering:crispEdges;"/>
<rect x="59.25925925925926" y="77.77777777777779" width="3.7037037037037037" height="3.7037037037037037" style="fill:#222222;shape-rendering:crispEdges;"/>
<rect x="62.96296296296296" y="77.77777777777779" width="3.7037037037037037" height="3.7037037037037037" style="fill:#222222;shape-rendering:crispEdges;"/>
<rect x="66.66666666666667" y="77.77777777777779" width="3.7037037037037037" height="3.7037037037037037" style="fill:#222222;shape-rendering:crispEdges;"/>
<rect x="70.37037037037038" y="77.77777777777779" width="3.7037037037037037" height="3.7037037037037037" style="fill:#222222;shape-rendering:crispEdges;"/>
<rect x="74.07407407407408" y="77.77777777777779" width="3.7037037037037037" height="3.7037037037037037" style="fill:#222222;shape-rendering:crispEdges;"/>
<rect x="77.77777777777779" y="77.77777777777779" width="3.7037037037037037" height="3.7037037037037037" style="fill:#222222;shape-rendering:crispEdges;"/>
<rect x="81.48148148148148" y="77.77777777777779" width="3.7037037037037037" height="3.7037037037037037" style="fill:#222222;shape-rendering:crispEdges;"/>
<rect x="85.18518518518519" y="77.77777777777779" width="3.7037037037037037" height="3.7037037037037037" style="fill:#222222;shape-rendering:crispEdges;"/>
<rect x="92.5925925925926" y="77.77777777777779" width="3.7037037037037037" height="3.7037037037037037" style="fill:#222222;shape-rendering:crispEdges;"/>
<rect x="3.7037037037037037" y="81.48148148148148" width="3.7037037037037037" height="3.7037037037037037" style="fill:#222222;shape-rendering:crispEdges;"/>
<rect x="11.11111111111111" y="81.48148148148148" width="3.7037037037037037" height="3.7037037037037037" style="fill:#222222;shape-rendering:crispEdges;"/>
<rect x="14.814814814814815" y="81.48148148148148" width="3.7037037037037037" height="3.7037037037037037" style="fill:#222222;shape-rendering:crispEdges;"/>
<rect x="18.51851851851852" y="81.48148148148148" width="3.7037037037037037" height="3.7037037037037037" style="fill:#222222;shape-rendering:crispEdges;"/>
<rect x="25.925925925925924" y="81.48148148148148" width="3.7037037037037037" height="3.7037037037037037" style="fill:#222222;shape-rendering:crispEdges;"/>
<rect x="33.333333333333336" y="81.48148148148148" width="3.7037037037037037" height="3.7037037037037037" style="fill:#222222;shape-rendering:crispEdges;"/>
<rect x="48.148148148148145" y="81.48148148148148" width="3.7037037037037037" height="3.7037037037037037" style="fill:#222222;shape-rendering:crispEdges;"/>
<rect x="51.85185185185185" y="81.48148148148148" width="3.7037037037037037" height="3.7037037037037037" style="fill:#222222;shape-rendering:crispEdges;"/>
<rect x="70.37037037037038" y="81.48148148148148" width="3.7037037037037037" height="3.7037037037037037" style="fill:#222222;shape-rendering:crispEdges;"/>
<rect x="88.8888888888889" y="81.48148148148148" width="3.7037037037037037" height="3.7037037037037037" style="fill:#222222;shape-rendering:crispEdges;"/>
<rect x="92.5925925925926" y="81.48148148148148" width="3.7037037037037037" height="3.7037037037037037" style="fill:#222222;shape-rendering:crispEdges;"/>
<rect x="3.7037037037037037" y="85.18518518518519" width="3.7037037037037037" height="3.7037037037037037" style="fill:#222222;shape-rendering:crispEdges;"/>
<rect x="11.11111111111111" y="85.18518518518519" width="3.7037037037037037" height="3.7037037037037037" style="fill:#222222;shape-rendering:crispEdges;"/>
<rect x="14.814814814814815" y="85.18518518518519" width="3.7037037037037037" height="3.7037037037037037" style="fill:#222222;shape-rendering:crispEdges;"/>
<rect x="18.51851851851852" y="85.18518518518519" width="3.7037037037037037" height="3.7037037037037037" style="fill:#222222;shape-rendering:crispEdges;"/>
<rect x="25.925925925925924" y="85.18518518518519" width="3.7037037037037037" height="3.7037037037037037" style="fill:#222222;shape-rendering:crispEdges;"/>
<rect x="37.03703703703704" y="85.18518518518519" width="3.7037037037037037" height="3.7037037037037037" style="fill:#222222;shape-rendering:crispEdges;"/>
<rect x="44.44444444444444" y="85.18518518518519" width="3.7037037037037037" height="3.7037037037037037" style="fill:#222222;shape-rendering:crispEdges;"/>
<rect x="48.148148148148145" y="85.18518518518519" width="3.7037037037037037" height="3.7037037037037037" style="fill:#222222;shape-rendering:crispEdges;"/>
<rect x="51.85185185185185" y="85.18518518518519" width="3.7037037037037037" height="3.7037037037037037" style="fill:#222222;shape-rendering:crispEdges;"/>
<rect x="62.96296296296296" y="85.18518518518519" width="3.7037037037037037" height="3.7037037037037037" style="fill:#222222;shape-rendering:crispEdges;"/>
<rect x="70.37037037037038" y="85.18518518518519" width="3.7037037037037037" height="3.7037037037037037" style="fill:#222222;shape-rendering:crispEdges;"/>
<rect x="81.48148148148148" y="85.18518518518519" width="3.7037037037037037" height="3.7037037037037037" style="fill:#222222;shape-rendering:crispEdges;"/>
<rect x="88.8888888888889" y="85.18518518518519" width="3.7037037037037037" height="3.7037037037037037" style="fill:#222222;shape-rendering:crispEdges;"/>
<rect x="92.5925925925926" y="85.18518518518519" width="3.7037037037037037" height="3.7037037037037037" style="fill:#222222;shape-rendering:crispEdges;"/>
<rect x="3.7037037037037037" y="88.8888888888889" width="3.7037037037037037" height="3.7037037037037037" style="fill:#222222;shape-rendering:crispEdges;"/>
<rect x="25.925925925925924" y="88.8888888888889" width="3.7037037037037037" height="3.7037037037037037" style="fill:#222222;shape-rendering:crispEdges;"/>
<rect x="33.333333333333336" y="88.8888888888889" width="3.7037037037037037" height="3.7037037037037037" style="fill:#222222;shape-rendering:crispEdges;"/>
<rect x="44.44444444444444" y="88.8888888888889" width="3.7037037037037037" height="3.7037037037037037" style="fill:#222222;shape-rendering:crispEdges;"/>
<rect x="51.85185185185185" y="88.8888888888889" width="3.7037037037037037" height="3.7037037037037037" style="fill:#222222;shape-rendering:crispEdges;"/>
<rect x="55.55555555555556" y="88.8888888888889" width="3.7037037037037037" height="3.7037037037037037" style="fill:#222222;shape-rendering:crispEdges;"/>
<rect x="59.25925925925926" y="88.8888888888889" width="3.7037037037037037" height="3.7037037037037037" style="fill:#222222;shape-rendering:crispEdges;"/>
<rect x="62.96296296296296" y="88.8888888888889" width="3.7037037037037037" height="3.7037037037037037" style="fill:#222222;shape-rendering:crispEdges;"/>
<rect x="66.66666666666667" y="88.8888888888889" width="3.7037037037037037" height="3.7037037037037037" style="fill:#222222;shape-rendering:crispEdges;"/>
<rect x="77.77777777777779" y="88.8888888888889" width="3.7037037037037037" height="3.7037037037037037" style="fill:#222222;shape-rendering:crispEdges;"/>
<rect x="85.18518518518519" y="88.8888888888889" width="3.7037037037037037" height="3.7037037037037037" style="fill:#222222;shape-rendering:crispEdges;"/>
<rect x="92.5925925925926" y="88.8888888888889" width="3.7037037037037037" height="3.7037037037037037" style="fill:#222222;shape-rendering:crispEdges;"/>
<rect x="3.7037037037037037" y="92.5925925925926" width="3.7037037037037037" height="3.7037037037037037" style="fill:#222222;shape-rendering:crispEdges;"/>
<rect x="7.407407407407407" y="92.5925925925926" width="3.7037037037037037" height="3.7037037037037037" style="fill:#222222;shape-rendering:crispEdges;"/>
<rect x="11.11111111111111" y="92.5925925925926" width="3.7037037037037037" height="3.7037037037037037" style="fill:#222222;shape-rendering:crispEdges;"/>
<rect x="14.814814814814815" y="92.5925925925926" width="3.7037037037037037" height="3.7037037037037037" style="fill:#222222;shape-rendering:crispEdges;"/>
<rect x="18.51851851851852" y="92.5925925925926" width="3.7037037037037037" height="3.7037037037037037" style="fill:#222222;shape-rendering:crispEdges;"/>
<rect x="22.22222222222222" y="92.5925925925926" width="3.7037037037037037" height="3.7037037037037037" style="fill:#222222;shape-rendering:crispEdges;"/>
<rect x="25.925925925925924" y="92.5925925925926" width="3.7037037037037037" height="3.7037037037037037" style="fill:#222222;shape-rendering:crispEdges;"/>
<rect x="33.333333333333336" y="92.5925925925926" width="3.7037037037037037" height="3.7037037037037037" style="fill:#222222;shape-rendering:crispEdges;"/>
<rect x="44.44444444444444" y="92.5925925925926" width="3.7037037037037037" height="3.7037037037037037" style="fill:#222222;shape-rendering:crispEdges;"/>
<rect x="51.85185185185185" y="92.5925925925926" width="3.7037037037037037" height="3.7037037037037037" style="fill:#222222;shape-rendering:crispEdges;"/>
<rect x="62.96296296296296" y="92.5925925925926" width="3.7037037037037037" height="3.7037037037037037" style="fill:#222222;shape-rendering:crispEdges;"/>
<rect x="66.66666666666667" y="92.5925925925926" width="3.7037037037037037" height="3.7037037037037037" style="fill:#222222;shape-rendering:crispEdges;"/>
<rect x="70.37037037037038" y="92.5925925925926" width="3.7037037037037037" height="3.7037037037037037" style="fill:#222222;shape-rendering:crispEdges;"/>
<rect x="77.77777777777779" y="92.5925925925926" width="3.7037037037037037" height="3.7037037037037037" style="fill:#222222;shape-rendering:crispEdges;"/>
<rect x="81.48148148148148" y="92.5925925925926" width="3.7037037037037037" height="3.7037037037037037" style="fill:#222222;shape-rendering:crispEdges;"/>
<rect x="92.5925925925926" y="92.5925925925926" width="3.7037037037037037" height="3.7037037037037037" style="fill:#222222;shape-rendering:crispEdges;"/>
</svg>